<svg width="919" height="354" viewBox="0 0 919 354" fill="none" xmlns="http://www.w3.org/2000/svg">
<rect x="0.25" y="0.25" width="918.5" height="353.5" rx="9.75" fill="white"/>
<rect x="0.25" y="0.25" width="918.5" height="353.5" rx="9.75" stroke="black" stroke-width="0.5"/>
<path d="M109.654 333.139C108.905 333.139 108.267 332.935 107.74 332.528C107.213 332.117 106.811 331.522 106.532 330.743C106.254 329.961 106.115 329.016 106.115 327.909C106.115 326.809 106.254 325.869 106.532 325.09C106.814 324.308 107.218 323.711 107.745 323.3C108.276 322.886 108.912 322.679 109.654 322.679C110.397 322.679 111.032 322.886 111.559 323.3C112.089 323.711 112.493 324.308 112.772 325.09C113.053 325.869 113.194 326.809 113.194 327.909C113.194 329.016 113.055 329.961 112.777 330.743C112.498 331.522 112.096 332.117 111.569 332.528C111.042 332.935 110.404 333.139 109.654 333.139ZM109.654 332.045C110.397 332.045 110.974 331.687 111.385 330.972C111.796 330.256 112.001 329.235 112.001 327.909C112.001 327.027 111.907 326.277 111.718 325.657C111.532 325.037 111.264 324.565 110.912 324.24C110.564 323.915 110.145 323.753 109.654 323.753C108.919 323.753 108.344 324.116 107.929 324.842C107.515 325.564 107.308 326.587 107.308 327.909C107.308 328.791 107.401 329.54 107.586 330.156C107.772 330.773 108.039 331.242 108.387 331.563C108.738 331.885 109.161 332.045 109.654 332.045ZM114.924 330.455H116.177C116.214 330.799 116.331 331.091 116.53 331.33C116.732 331.565 116.994 331.744 117.316 331.866C117.637 331.986 117.994 332.045 118.385 332.045C118.809 332.045 119.19 331.974 119.528 331.832C119.866 331.689 120.135 331.477 120.333 331.195C120.532 330.91 120.632 330.557 120.632 330.136C120.632 329.768 120.546 329.427 120.373 329.112C120.201 328.794 119.924 328.537 119.543 328.342C119.162 328.146 118.656 328.048 118.027 328.048H117.211V327.054L119.757 323.991V323.912H115.422V322.818H121.447V323.713L118.723 327.014V327.094C119.16 327.114 119.568 327.203 119.946 327.362C120.327 327.521 120.658 327.737 120.94 328.009C121.225 328.28 121.447 328.597 121.606 328.958C121.765 329.319 121.845 329.712 121.845 330.136C121.845 330.716 121.696 331.233 121.397 331.688C121.102 332.138 120.693 332.493 120.169 332.751C119.649 333.01 119.047 333.139 118.365 333.139C117.761 333.139 117.206 333.033 116.699 332.821C116.192 332.609 115.779 332.302 115.461 331.901C115.143 331.5 114.964 331.018 114.924 330.455Z" fill="black"/>
<path d="M192.13 333.139C191.381 333.139 190.743 332.935 190.216 332.528C189.689 332.117 189.286 331.522 189.008 330.743C188.73 329.961 188.59 329.016 188.59 327.909C188.59 326.809 188.73 325.869 189.008 325.09C189.29 324.308 189.694 323.711 190.221 323.3C190.751 322.886 191.388 322.679 192.13 322.679C192.873 322.679 193.507 322.886 194.034 323.3C194.565 323.711 194.969 324.308 195.247 325.09C195.529 325.869 195.67 326.809 195.67 327.909C195.67 329.016 195.531 329.961 195.252 330.743C194.974 331.522 194.571 332.117 194.044 332.528C193.517 332.935 192.879 333.139 192.13 333.139ZM192.13 332.045C192.873 332.045 193.449 331.687 193.86 330.972C194.271 330.256 194.477 329.235 194.477 327.909C194.477 327.027 194.382 326.277 194.193 325.657C194.008 325.037 193.739 324.565 193.388 324.24C193.04 323.915 192.621 323.753 192.13 323.753C191.394 323.753 190.819 324.116 190.405 324.842C189.991 325.564 189.783 326.587 189.783 327.909C189.783 328.791 189.876 329.54 190.062 330.156C190.248 330.773 190.514 331.242 190.862 331.563C191.214 331.885 191.636 332.045 192.13 332.045ZM197.32 329.778C197.327 329.46 197.375 329.13 197.465 328.789C197.554 328.448 197.705 328.068 197.917 327.651C198.129 327.233 198.421 326.749 198.792 326.199L201.079 322.818H202.431L199.747 326.736C199.866 326.696 199.989 326.663 200.114 326.636C200.244 326.61 200.373 326.597 200.502 326.597C201.119 326.597 201.669 326.739 202.153 327.024C202.64 327.309 203.023 327.699 203.301 328.192C203.583 328.686 203.724 329.248 203.724 329.878C203.724 330.508 203.585 331.068 203.306 331.558C203.031 332.049 202.652 332.435 202.168 332.717C201.687 332.998 201.139 333.139 200.522 333.139C199.899 333.139 199.346 332.995 198.862 332.707C198.378 332.415 197.998 332.017 197.723 331.513C197.448 331.006 197.314 330.428 197.32 329.778ZM198.494 329.858C198.494 330.289 198.58 330.67 198.752 331.001C198.925 331.333 199.163 331.593 199.468 331.782C199.773 331.971 200.124 332.065 200.522 332.065C200.92 332.065 201.271 331.973 201.576 331.787C201.881 331.598 202.12 331.339 202.292 331.011C202.464 330.68 202.551 330.302 202.551 329.878C202.551 329.447 202.464 329.067 202.292 328.739C202.12 328.411 201.881 328.154 201.576 327.969C201.271 327.783 200.92 327.69 200.522 327.69C200.124 327.69 199.773 327.783 199.468 327.969C199.163 328.151 198.925 328.406 198.752 328.734C198.58 329.059 198.494 329.434 198.494 329.858Z" fill="black"/>
<path d="M274.231 333.139C273.482 333.139 272.844 332.935 272.317 332.528C271.79 332.117 271.387 331.522 271.109 330.743C270.83 329.961 270.691 329.016 270.691 327.909C270.691 326.809 270.83 325.869 271.109 325.09C271.39 324.308 271.795 323.711 272.322 323.3C272.852 322.886 273.488 322.679 274.231 322.679C274.973 322.679 275.608 322.886 276.135 323.3C276.665 323.711 277.069 324.308 277.348 325.09C277.63 325.869 277.77 326.809 277.77 327.909C277.77 329.016 277.631 329.961 277.353 330.743C277.074 331.522 276.672 332.117 276.145 332.528C275.618 332.935 274.98 333.139 274.231 333.139ZM274.231 332.045C274.973 332.045 275.55 331.687 275.961 330.972C276.372 330.256 276.577 329.235 276.577 327.909C276.577 327.027 276.483 326.277 276.294 325.657C276.108 325.037 275.84 324.565 275.488 324.24C275.14 323.915 274.721 323.753 274.231 323.753C273.495 323.753 272.92 324.116 272.506 324.842C272.091 325.564 271.884 326.587 271.884 327.909C271.884 328.791 271.977 329.54 272.162 330.156C272.348 330.773 272.615 331.242 272.963 331.563C273.314 331.885 273.737 332.045 274.231 332.045ZM279.421 325.94C279.421 325.311 279.559 324.75 279.834 324.26C280.112 323.769 280.492 323.383 280.972 323.102C281.456 322.82 282.006 322.679 282.623 322.679C283.246 322.679 283.799 322.825 284.283 323.116C284.767 323.405 285.147 323.803 285.422 324.31C285.697 324.813 285.831 325.39 285.824 326.04C285.818 326.358 285.77 326.688 285.68 327.029C285.591 327.371 285.44 327.75 285.228 328.168C285.016 328.585 284.724 329.069 284.353 329.619L282.066 333H280.714L283.398 329.082C283.279 329.122 283.155 329.155 283.025 329.182C282.899 329.208 282.772 329.222 282.643 329.222C282.026 329.222 281.474 329.079 280.987 328.794C280.503 328.509 280.12 328.12 279.839 327.626C279.56 327.132 279.421 326.57 279.421 325.94ZM280.594 325.94C280.594 326.371 280.68 326.751 280.853 327.079C281.025 327.407 281.264 327.664 281.569 327.849C281.874 328.035 282.225 328.128 282.623 328.128C283.02 328.128 283.372 328.037 283.677 327.854C283.982 327.669 284.22 327.414 284.393 327.089C284.565 326.761 284.651 326.384 284.651 325.96C284.651 325.529 284.565 325.148 284.393 324.817C284.22 324.485 283.982 324.225 283.677 324.036C283.372 323.847 283.02 323.753 282.623 323.753C282.225 323.753 281.874 323.847 281.569 324.036C281.264 324.222 281.025 324.48 280.853 324.812C280.68 325.14 280.594 325.516 280.594 325.94Z" fill="black"/>
<path d="M357.337 322.818V333H356.104V324.608H356.025C355.978 324.701 355.859 324.807 355.667 324.926C355.474 325.042 355.226 325.145 354.921 325.234C354.616 325.321 354.268 325.364 353.877 325.364V324.33C354.271 324.33 354.613 324.258 354.901 324.116C355.189 323.973 355.43 323.806 355.622 323.614C355.817 323.421 355.965 323.247 356.064 323.092C356.167 322.936 356.227 322.845 356.243 322.818H357.337ZM360.255 333V332.105L363.616 328.426C364.011 327.995 364.335 327.621 364.591 327.303C364.846 326.981 365.035 326.679 365.157 326.398C365.283 326.113 365.346 325.814 365.346 325.503C365.346 325.145 365.26 324.835 365.088 324.573C364.919 324.311 364.687 324.109 364.392 323.967C364.097 323.824 363.765 323.753 363.397 323.753C363.006 323.753 362.665 323.834 362.373 323.996C362.085 324.156 361.861 324.379 361.702 324.668C361.546 324.956 361.468 325.294 361.468 325.682H360.295C360.295 325.085 360.433 324.562 360.708 324.111C360.983 323.66 361.357 323.309 361.831 323.057C362.309 322.805 362.844 322.679 363.437 322.679C364.034 322.679 364.562 322.805 365.023 323.057C365.484 323.309 365.845 323.648 366.107 324.076C366.369 324.504 366.5 324.979 366.5 325.503C366.5 325.877 366.432 326.244 366.296 326.602C366.163 326.956 365.931 327.352 365.6 327.79C365.272 328.224 364.816 328.754 364.233 329.381L361.946 331.827V331.906H366.679V333H360.255Z" fill="black"/>
<path d="M439.417 322.818V333H438.184V324.608H438.105C438.058 324.701 437.939 324.807 437.747 324.926C437.554 325.042 437.306 325.145 437.001 325.234C436.696 325.321 436.348 325.364 435.957 325.364V324.33C436.351 324.33 436.693 324.258 436.981 324.116C437.269 323.973 437.51 323.806 437.702 323.614C437.897 323.421 438.045 323.247 438.144 323.092C438.247 322.936 438.307 322.845 438.323 322.818H439.417ZM445.517 333.139C444.934 333.139 444.409 333.023 443.941 332.791C443.474 332.559 443.099 332.241 442.818 331.837C442.536 331.432 442.382 330.972 442.355 330.455H443.548C443.595 330.915 443.804 331.296 444.175 331.598C444.549 331.896 444.997 332.045 445.517 332.045C445.935 332.045 446.306 331.948 446.631 331.752C446.959 331.557 447.216 331.288 447.401 330.947C447.59 330.602 447.685 330.213 447.685 329.778C447.685 329.334 447.587 328.938 447.392 328.59C447.199 328.239 446.934 327.962 446.596 327.76C446.258 327.558 445.872 327.455 445.438 327.452C445.126 327.448 444.806 327.496 444.478 327.596C444.15 327.692 443.88 327.816 443.668 327.969L442.514 327.83L443.131 322.818H448.421V323.912H444.165L443.807 326.915H443.867C444.075 326.749 444.337 326.612 444.652 326.502C444.967 326.393 445.295 326.338 445.637 326.338C446.26 326.338 446.815 326.487 447.302 326.786C447.793 327.08 448.177 327.485 448.455 327.999C448.737 328.512 448.878 329.099 448.878 329.759C448.878 330.408 448.732 330.988 448.441 331.499C448.152 332.006 447.754 332.407 447.247 332.702C446.74 332.993 446.164 333.139 445.517 333.139Z" fill="black"/>
<path d="M521.462 322.818V333H520.229V324.608H520.15C520.103 324.701 519.984 324.807 519.792 324.926C519.599 325.042 519.351 325.145 519.046 325.234C518.741 325.321 518.393 325.364 518.002 325.364V324.33C518.396 324.33 518.738 324.258 519.026 324.116C519.314 323.973 519.555 323.806 519.747 323.614C519.942 323.421 520.09 323.247 520.189 323.092C520.292 322.936 520.352 322.845 520.368 322.818H521.462ZM527.642 333.139C526.959 333.139 526.356 333.018 525.832 332.776C525.312 332.531 524.906 332.195 524.614 331.767C524.322 331.336 524.178 330.846 524.181 330.295C524.178 329.865 524.263 329.467 524.435 329.102C524.607 328.734 524.843 328.428 525.141 328.183C525.443 327.934 525.779 327.777 526.15 327.71V327.651C525.663 327.525 525.275 327.251 524.987 326.83C524.699 326.406 524.556 325.924 524.559 325.384C524.556 324.866 524.687 324.404 524.952 323.996C525.217 323.589 525.582 323.267 526.046 323.032C526.513 322.797 527.045 322.679 527.642 322.679C528.232 322.679 528.759 322.797 529.223 323.032C529.687 323.267 530.051 323.589 530.316 323.996C530.585 324.404 530.721 324.866 530.724 325.384C530.721 325.924 530.573 326.406 530.282 326.83C529.993 327.251 529.61 327.525 529.133 327.651V327.71C529.501 327.777 529.833 327.934 530.128 328.183C530.422 328.428 530.658 328.734 530.833 329.102C531.009 329.467 531.099 329.865 531.102 330.295C531.099 330.846 530.949 331.336 530.654 331.767C530.363 332.195 529.957 332.531 529.436 332.776C528.919 333.018 528.321 333.139 527.642 333.139ZM527.642 332.045C528.102 332.045 528.5 331.971 528.835 331.822C529.17 331.673 529.428 331.462 529.61 331.19C529.793 330.919 529.886 330.6 529.889 330.236C529.886 329.851 529.786 329.512 529.591 329.217C529.395 328.922 529.128 328.69 528.79 328.521C528.455 328.352 528.073 328.267 527.642 328.267C527.208 328.267 526.82 328.352 526.478 328.521C526.14 328.69 525.873 328.922 525.678 329.217C525.486 329.512 525.391 329.851 525.395 330.236C525.391 330.6 525.479 330.919 525.658 331.19C525.84 331.462 526.101 331.673 526.439 331.822C526.777 331.971 527.178 332.045 527.642 332.045ZM527.642 327.213C528.006 327.213 528.329 327.14 528.611 326.994C528.896 326.848 529.12 326.645 529.282 326.383C529.445 326.121 529.528 325.814 529.531 325.463C529.528 325.118 529.446 324.818 529.287 324.563C529.128 324.305 528.908 324.106 528.626 323.967C528.344 323.824 528.016 323.753 527.642 323.753C527.261 323.753 526.927 323.824 526.642 323.967C526.357 324.106 526.137 324.305 525.981 324.563C525.825 324.818 525.749 325.118 525.753 325.463C525.749 325.814 525.827 326.121 525.986 326.383C526.149 326.645 526.372 326.848 526.657 326.994C526.942 327.14 527.271 327.213 527.642 327.213Z" fill="black"/>
<path d="M600.375 333V332.105L603.736 328.426C604.131 327.995 604.455 327.621 604.711 327.303C604.966 326.981 605.155 326.679 605.277 326.398C605.403 326.113 605.466 325.814 605.466 325.503C605.466 325.145 605.38 324.835 605.208 324.573C605.039 324.311 604.807 324.109 604.512 323.967C604.217 323.824 603.885 323.753 603.518 323.753C603.126 323.753 602.785 323.834 602.493 323.996C602.205 324.156 601.981 324.379 601.822 324.668C601.666 324.956 601.589 325.294 601.589 325.682H600.415C600.415 325.085 600.553 324.562 600.828 324.111C601.103 323.66 601.478 323.309 601.951 323.057C602.429 322.805 602.964 322.679 603.557 322.679C604.154 322.679 604.683 322.805 605.143 323.057C605.604 323.309 605.965 323.648 606.227 324.076C606.489 324.504 606.62 324.979 606.62 325.503C606.62 325.877 606.552 326.244 606.416 326.602C606.283 326.956 606.051 327.352 605.72 327.79C605.392 328.224 604.936 328.754 604.353 329.381L602.066 331.827V331.906H606.799V333H600.375ZM612.113 322.818V333H610.88V324.608H610.801C610.754 324.701 610.635 324.807 610.443 324.926C610.251 325.042 610.002 325.145 609.697 325.234C609.392 325.321 609.044 325.364 608.653 325.364V324.33C609.048 324.33 609.389 324.258 609.677 324.116C609.966 323.973 610.206 323.806 610.398 323.614C610.594 323.421 610.741 323.247 610.841 323.092C610.943 322.936 611.003 322.845 611.02 322.818H612.113Z" fill="black"/>
<path d="M681.184 333V332.105L684.545 328.426C684.939 327.995 685.264 327.621 685.519 327.303C685.774 326.981 685.963 326.679 686.086 326.398C686.212 326.113 686.275 325.814 686.275 325.503C686.275 325.145 686.189 324.835 686.016 324.573C685.847 324.311 685.615 324.109 685.32 323.967C685.025 323.824 684.694 323.753 684.326 323.753C683.935 323.753 683.594 323.834 683.302 323.996C683.014 324.156 682.79 324.379 682.631 324.668C682.475 324.956 682.397 325.294 682.397 325.682H681.224C681.224 325.085 681.361 324.562 681.636 324.111C681.912 323.66 682.286 323.309 682.76 323.057C683.237 322.805 683.773 322.679 684.366 322.679C684.962 322.679 685.491 322.805 685.952 323.057C686.413 323.309 686.774 323.648 687.036 324.076C687.297 324.504 687.428 324.979 687.428 325.503C687.428 325.877 687.36 326.244 687.225 326.602C687.092 326.956 686.86 327.352 686.529 327.79C686.2 328.224 685.745 328.754 685.161 329.381L682.874 331.827V331.906H687.607V333H681.184ZM689.203 330.912V329.898L693.28 322.818H694.493L690.516 329.739V329.818H696.561V330.912H689.203ZM693.996 333V330.614V330.131V326.636H695.169V333H693.996Z" fill="black"/>
<path d="M763.352 333V332.105L766.713 328.426C767.107 327.995 767.432 327.621 767.687 327.303C767.942 326.981 768.131 326.679 768.254 326.398C768.38 326.113 768.443 325.814 768.443 325.503C768.443 325.145 768.357 324.835 768.184 324.573C768.015 324.311 767.783 324.109 767.488 323.967C767.193 323.824 766.862 323.753 766.494 323.753C766.103 323.753 765.762 323.834 765.47 323.996C765.182 324.156 764.958 324.379 764.799 324.668C764.643 324.956 764.565 325.294 764.565 325.682H763.392C763.392 325.085 763.529 324.562 763.804 324.111C764.08 323.66 764.454 323.309 764.928 323.057C765.405 322.805 765.941 322.679 766.534 322.679C767.13 322.679 767.659 322.805 768.12 323.057C768.58 323.309 768.942 323.648 769.204 324.076C769.465 324.504 769.596 324.979 769.596 325.503C769.596 325.877 769.528 326.244 769.393 326.602C769.26 326.956 769.028 327.352 768.696 327.79C768.368 328.224 767.913 328.754 767.329 329.381L765.042 331.827V331.906H769.775V333H763.352ZM775.09 333.139C774.407 333.139 773.804 333.018 773.28 332.776C772.76 332.531 772.354 332.195 772.062 331.767C771.771 331.336 771.626 330.846 771.63 330.295C771.626 329.865 771.711 329.467 771.883 329.102C772.056 328.734 772.291 328.428 772.589 328.183C772.891 327.934 773.227 327.777 773.598 327.71V327.651C773.111 327.525 772.723 327.251 772.435 326.83C772.147 326.406 772.004 325.924 772.008 325.384C772.004 324.866 772.135 324.404 772.4 323.996C772.665 323.589 773.03 323.267 773.494 323.032C773.961 322.797 774.493 322.679 775.09 322.679C775.68 322.679 776.207 322.797 776.671 323.032C777.135 323.267 777.5 323.589 777.765 323.996C778.033 324.404 778.169 324.866 778.172 325.384C778.169 325.924 778.022 326.406 777.73 326.83C777.442 327.251 777.059 327.525 776.581 327.651V327.71C776.949 327.777 777.281 327.934 777.576 328.183C777.871 328.428 778.106 328.734 778.282 329.102C778.457 329.467 778.547 329.865 778.55 330.295C778.547 330.846 778.398 331.336 778.103 331.767C777.811 332.195 777.405 332.531 776.885 332.776C776.368 333.018 775.769 333.139 775.09 333.139ZM775.09 332.045C775.551 332.045 775.948 331.971 776.283 331.822C776.618 331.673 776.876 331.462 777.059 331.19C777.241 330.919 777.334 330.6 777.337 330.236C777.334 329.851 777.234 329.512 777.039 329.217C776.843 328.922 776.576 328.69 776.238 328.521C775.904 328.352 775.521 328.267 775.09 328.267C774.656 328.267 774.268 328.352 773.927 328.521C773.589 328.69 773.322 328.922 773.126 329.217C772.934 329.512 772.839 329.851 772.843 330.236C772.839 330.6 772.927 330.919 773.106 331.19C773.289 331.462 773.549 331.673 773.887 331.822C774.225 331.971 774.626 332.045 775.09 332.045ZM775.09 327.213C775.455 327.213 775.778 327.14 776.059 326.994C776.344 326.848 776.568 326.645 776.731 326.383C776.893 326.121 776.976 325.814 776.979 325.463C776.976 325.118 776.895 324.818 776.736 324.563C776.576 324.305 776.356 324.106 776.074 323.967C775.793 323.824 775.464 323.753 775.09 323.753C774.709 323.753 774.376 323.824 774.091 323.967C773.806 324.106 773.585 324.305 773.429 324.563C773.274 324.818 773.197 325.118 773.201 325.463C773.197 325.814 773.275 326.121 773.434 326.383C773.597 326.645 773.821 326.848 774.106 326.994C774.391 327.14 774.719 327.213 775.09 327.213Z" fill="black"/>
<path d="M846.36 330.455H847.613C847.649 330.799 847.767 331.091 847.966 331.33C848.168 331.565 848.43 331.744 848.751 331.866C849.073 331.986 849.429 332.045 849.82 332.045C850.244 332.045 850.626 331.974 850.964 331.832C851.302 331.689 851.57 331.477 851.769 331.195C851.968 330.91 852.067 330.557 852.067 330.136C852.067 329.768 851.981 329.427 851.809 329.112C851.636 328.794 851.36 328.537 850.979 328.342C850.597 328.146 850.092 328.048 849.462 328.048H848.647V327.054L851.192 323.991V323.912H846.857V322.818H852.883V323.713L850.158 327.014V327.094C850.596 327.114 851.003 327.203 851.381 327.362C851.762 327.521 852.094 327.737 852.376 328.009C852.661 328.28 852.883 328.597 853.042 328.958C853.201 329.319 853.28 329.712 853.28 330.136C853.28 330.716 853.131 331.233 852.833 331.688C852.538 332.138 852.129 332.493 851.605 332.751C851.085 333.01 850.483 333.139 849.8 333.139C849.197 333.139 848.642 333.033 848.135 332.821C847.628 332.609 847.215 332.302 846.897 331.901C846.579 331.5 846.4 331.018 846.36 330.455ZM858.571 322.818V333H857.338V324.608H857.259C857.213 324.701 857.093 324.807 856.901 324.926C856.709 325.042 856.46 325.145 856.155 325.234C855.85 325.321 855.502 325.364 855.111 325.364V324.33C855.506 324.33 855.847 324.258 856.135 324.116C856.424 323.973 856.664 323.806 856.856 323.614C857.052 323.421 857.199 323.247 857.299 323.092C857.401 322.936 857.461 322.845 857.478 322.818H858.571Z" fill="black"/>
<mask id="mask0_42_56" style="mask-type:alpha" maskUnits="userSpaceOnUse" x="74" y="114" width="821" height="219">
<rect x="74" y="114" width="821" height="219" fill="url(#paint0_radial_42_56)"/>
</mask>
<g mask="url(#mask0_42_56)">
<path opacity="0.6" d="M169.831 280.73L131.764 243.497C127.759 239.581 121.999 238.043 116.575 239.444L74 250.438V332.772H895.513V180.776L846.398 189.053C844.604 189.355 842.875 189.961 841.285 190.845L801.315 213.057C795.864 216.086 789.15 215.672 784.113 211.997L748.338 185.897C743.961 182.703 738.264 181.942 733.202 183.874L700.137 196.495C693.892 198.879 686.824 197.129 682.412 192.108L643.999 148.389C640.518 144.427 635.308 142.435 630.072 143.064L590.727 147.787C588.356 148.071 586.078 148.883 584.062 150.162L540.619 177.726C537.51 179.699 533.816 180.539 530.16 180.105L493.724 175.777C488.02 175.1 482.391 177.531 478.975 182.149L440.589 234.028C436.236 239.912 428.444 242.091 421.67 239.321L385.821 224.658C383.236 223.6 380.418 223.238 377.649 223.608L335.904 229.175C332.439 229.637 329.22 231.222 326.74 233.686L285.163 275.007C281.457 278.69 276.187 280.332 271.046 279.405L231.757 272.323C229.247 271.871 226.665 272.025 224.227 272.773L185.711 284.588C180.11 286.306 174.019 284.826 169.831 280.73Z" fill="#8E8E93"/>
</g>
<path d="M74 250.437L116.575 239.443C121.999 238.042 127.759 239.58 131.764 243.496L169.831 280.729C174.019 284.825 180.11 286.305 185.711 284.587L224.227 272.772C226.665 272.024 229.247 271.87 231.757 272.322L271.046 279.404C276.187 280.331 281.457 278.689 285.163 275.006L326.74 233.685C329.22 231.221 332.439 229.637 335.904 229.174L377.649 223.607C380.418 223.237 383.236 223.599 385.821 224.657L421.67 239.32C428.444 242.09 436.236 239.911 440.589 234.027L478.975 182.148C482.391 177.53 488.02 175.099 493.724 175.776L530.16 180.104C533.816 180.538 537.51 179.698 540.619 177.725L584.062 150.162C586.078 148.882 588.356 148.07 590.727 147.786L630.072 143.063C635.308 142.434 640.518 144.426 643.999 148.388L682.412 192.107C686.824 197.128 693.892 198.878 700.137 196.494L733.202 183.873C738.264 181.941 743.961 182.702 748.338 185.896L784.113 211.996C789.15 215.672 795.864 216.085 801.315 213.056L841.285 190.844C842.875 189.96 844.604 189.354 846.398 189.052L895.513 180.775" stroke="black" stroke-width="3" stroke-linecap="round" stroke-linejoin="round"/>
<path d="M79.5 285.575L131.036 223.404C135.481 218.041 142.886 216.171 149.345 218.779L179.118 230.802C181.021 231.57 183.055 231.966 185.109 231.966H224.315C229.732 231.966 234.781 234.706 237.732 239.249L263.575 279.028C270.247 289.297 285.51 288.57 291.176 277.715L327.971 207.224C331.702 200.076 340.168 196.821 347.726 199.628L384.325 213.221C386.419 213.998 388.326 215.205 389.925 216.764L421.033 247.096C427.241 253.149 437.141 253.156 443.357 247.112L474.746 216.592C476.234 215.145 477.991 214.001 479.916 213.224L512.901 199.925C517.39 198.115 520.818 194.37 522.226 189.739L529.761 164.946C532.163 157.042 540.187 152.267 548.279 153.924L579.18 160.251C584.924 161.427 590.851 159.367 594.628 154.882L623.301 120.831C630.968 111.726 645.538 113.882 650.239 124.818L681.093 196.59C685.064 205.826 696.469 209.155 704.785 203.505L733.786 183.799C740.684 179.112 750.026 180.51 755.25 187.011L778.277 215.667C784.879 223.881 797.48 223.582 803.684 215.063L811.429 204.426C815.619 198.673 823.104 196.379 829.797 198.796L838.737 202.023C841.327 202.959 844.114 203.21 846.829 202.752L894.513 194.716" stroke="#AEAEB2" stroke-width="3" stroke-linecap="round" stroke-linejoin="round"/>
<line x1="61" y1="309.5" x2="895" y2="309.5" stroke="#C4C4C4"/>
<line x1="114.5" y1="310" x2="114.5" y2="316" stroke="#C4C4C4"/>
<line x1="196.5" y1="310" x2="196.5" y2="316" stroke="#C4C4C4"/>
<line x1="278.5" y1="310" x2="278.5" y2="316" stroke="#C4C4C4"/>
<line x1="360.5" y1="310" x2="360.5" y2="316" stroke="#C4C4C4"/>
<line x1="442.5" y1="310" x2="442.5" y2="316" stroke="#C4C4C4"/>
<line x1="524.5" y1="310" x2="524.5" y2="316" stroke="#C4C4C4"/>
<line x1="606.5" y1="310" x2="606.5" y2="316" stroke="#C4C4C4"/>
<line x1="688.5" y1="310" x2="688.5" y2="316" stroke="#C4C4C4"/>
<line x1="770.5" y1="310" x2="770.5" y2="316" stroke="#C4C4C4"/>
<line x1="852.5" y1="310" x2="852.5" y2="316" stroke="#C4C4C4"/>
<path d="M32.2358 140.306C31.6525 140.306 31.1271 140.19 30.6598 139.958C30.1925 139.726 29.8179 139.408 29.5362 139.003C29.2545 138.599 29.1004 138.138 29.0739 137.621H30.267C30.3134 138.082 30.5223 138.463 30.8935 138.765C31.268 139.063 31.7154 139.212 32.2358 139.212C32.6534 139.212 33.0246 139.114 33.3494 138.919C33.6776 138.723 33.9344 138.455 34.12 138.113C34.3089 137.769 34.4034 137.379 34.4034 136.945C34.4034 136.501 34.3056 136.105 34.1101 135.757C33.9179 135.405 33.6527 135.129 33.3146 134.926C32.9766 134.724 32.5904 134.622 32.1562 134.618C31.8447 134.615 31.5249 134.663 31.1967 134.762C30.8686 134.859 30.5985 134.983 30.3864 135.135L29.233 134.996L29.8494 129.985H35.1392V131.078H30.8835L30.5256 134.081H30.5852C30.794 133.916 31.0559 133.778 31.3707 133.669C31.6856 133.559 32.0137 133.505 32.3551 133.505C32.9782 133.505 33.5334 133.654 34.0206 133.952C34.5111 134.247 34.8956 134.651 35.174 135.165C35.4557 135.679 35.5966 136.265 35.5966 136.925C35.5966 137.575 35.4508 138.155 35.1591 138.665C34.8707 139.172 34.473 139.573 33.9659 139.868C33.4588 140.16 32.8821 140.306 32.2358 140.306ZM40.8926 140.306C40.1435 140.306 39.5055 140.102 38.9785 139.694C38.4515 139.283 38.0488 138.688 37.7704 137.909C37.492 137.127 37.3528 136.183 37.3528 135.076C37.3528 133.975 37.492 133.036 37.7704 132.257C38.0521 131.475 38.4565 130.878 38.9835 130.467C39.5138 130.053 40.1502 129.845 40.8926 129.845C41.635 129.845 42.2697 130.053 42.7967 130.467C43.327 130.878 43.7314 131.475 44.0098 132.257C44.2915 133.036 44.4324 133.975 44.4324 135.076C44.4324 136.183 44.2931 137.127 44.0147 137.909C43.7363 138.688 43.3336 139.283 42.8066 139.694C42.2797 140.102 41.6416 140.306 40.8926 140.306ZM40.8926 139.212C41.635 139.212 42.2117 138.854 42.6227 138.138C43.0337 137.422 43.2392 136.401 43.2392 135.076C43.2392 134.194 43.1447 133.443 42.9558 132.823C42.7702 132.204 42.5017 131.731 42.1504 131.407C41.8024 131.082 41.3831 130.919 40.8926 130.919C40.1568 130.919 39.5817 131.282 39.1674 132.008C38.7531 132.731 38.546 133.753 38.546 135.076C38.546 135.957 38.6388 136.706 38.8244 137.323C39.01 137.939 39.2768 138.408 39.6248 138.73C39.9761 139.051 40.3987 139.212 40.8926 139.212ZM49.6426 140.306C48.8935 140.306 48.2555 140.102 47.7285 139.694C47.2015 139.283 46.7988 138.688 46.5204 137.909C46.242 137.127 46.1028 136.183 46.1028 135.076C46.1028 133.975 46.242 133.036 46.5204 132.257C46.8021 131.475 47.2065 130.878 47.7335 130.467C48.2638 130.053 48.9002 129.845 49.6426 129.845C50.385 129.845 51.0197 130.053 51.5467 130.467C52.077 130.878 52.4814 131.475 52.7598 132.257C53.0415 133.036 53.1824 133.975 53.1824 135.076C53.1824 136.183 53.0431 137.127 52.7647 137.909C52.4863 138.688 52.0836 139.283 51.5566 139.694C51.0297 140.102 50.3916 140.306 49.6426 140.306ZM49.6426 139.212C50.385 139.212 50.9617 138.854 51.3727 138.138C51.7837 137.422 51.9892 136.401 51.9892 135.076C51.9892 134.194 51.8947 133.443 51.7058 132.823C51.5202 132.204 51.2517 131.731 50.9004 131.407C50.5524 131.082 50.1331 130.919 49.6426 130.919C48.9068 130.919 48.3317 131.282 47.9174 132.008C47.5031 132.731 47.296 133.753 47.296 135.076C47.296 135.957 47.3888 136.706 47.5744 137.323C47.76 137.939 48.0268 138.408 48.3748 138.73C48.7261 139.051 49.1487 139.212 49.6426 139.212Z" fill="black"/>
<path d="M28.8153 170.245V169.231L32.892 162.151H34.1051L30.1278 169.072V169.151H36.1733V170.245H28.8153ZM33.608 172.333V169.947V169.464V165.969H34.7812V172.333H33.608ZM41.3574 172.472C40.6084 172.472 39.9703 172.268 39.4434 171.861C38.9164 171.45 38.5137 170.855 38.2353 170.076C37.9569 169.294 37.8176 168.349 37.8176 167.242C37.8176 166.142 37.9569 165.202 38.2353 164.423C38.517 163.641 38.9213 163.044 39.4483 162.633C39.9786 162.219 40.615 162.012 41.3574 162.012C42.0998 162.012 42.7346 162.219 43.2615 162.633C43.7918 163.044 44.1962 163.641 44.4746 164.423C44.7563 165.202 44.8972 166.142 44.8972 167.242C44.8972 168.349 44.758 169.294 44.4796 170.076C44.2012 170.855 43.7985 171.45 43.2715 171.861C42.7445 172.268 42.1065 172.472 41.3574 172.472ZM41.3574 171.378C42.0998 171.378 42.6766 171.021 43.0875 170.305C43.4985 169.589 43.704 168.568 43.704 167.242C43.704 166.36 43.6096 165.61 43.4206 164.99C43.235 164.37 42.9666 163.898 42.6152 163.573C42.2672 163.248 41.848 163.086 41.3574 163.086C40.6216 163.086 40.0466 163.449 39.6323 164.175C39.218 164.897 39.0108 165.92 39.0108 167.242C39.0108 168.124 39.1036 168.873 39.2892 169.489C39.4748 170.106 39.7417 170.575 40.0897 170.896C40.441 171.218 40.8636 171.378 41.3574 171.378ZM50.1074 172.472C49.3584 172.472 48.7203 172.268 48.1934 171.861C47.6664 171.45 47.2637 170.855 46.9853 170.076C46.7069 169.294 46.5676 168.349 46.5676 167.242C46.5676 166.142 46.7069 165.202 46.9853 164.423C47.267 163.641 47.6713 163.044 48.1983 162.633C48.7286 162.219 49.365 162.012 50.1074 162.012C50.8498 162.012 51.4846 162.219 52.0115 162.633C52.5418 163.044 52.9462 163.641 53.2246 164.423C53.5063 165.202 53.6472 166.142 53.6472 167.242C53.6472 168.349 53.508 169.294 53.2296 170.076C52.9512 170.855 52.5485 171.45 52.0215 171.861C51.4945 172.268 50.8565 172.472 50.1074 172.472ZM50.1074 171.378C50.8498 171.378 51.4266 171.021 51.8375 170.305C52.2485 169.589 52.454 168.568 52.454 167.242C52.454 166.36 52.3596 165.61 52.1706 164.99C51.985 164.37 51.7166 163.898 51.3652 163.573C51.0172 163.248 50.598 163.086 50.1074 163.086C49.3716 163.086 48.7966 163.449 48.3823 164.175C47.968 164.897 47.7608 165.92 47.7608 167.242C47.7608 168.124 47.8536 168.873 48.0392 169.489C48.2248 170.106 48.4917 170.575 48.8397 170.896C49.191 171.218 49.6136 171.378 50.1074 171.378Z" fill="black"/>
<path d="M28.8949 201.955H30.1477C30.1842 202.299 30.3018 202.591 30.5007 202.83C30.7029 203.065 30.9647 203.244 31.2862 203.366C31.6077 203.486 31.964 203.545 32.3551 203.545C32.7794 203.545 33.1605 203.474 33.4986 203.332C33.8366 203.189 34.1051 202.977 34.304 202.695C34.5028 202.41 34.6023 202.057 34.6023 201.636C34.6023 201.268 34.5161 200.927 34.3438 200.612C34.1714 200.294 33.8946 200.037 33.5135 199.842C33.1323 199.646 32.6269 199.548 31.9972 199.548H31.1818V198.554L33.7273 195.491V195.412H29.392V194.318H35.4176V195.213L32.6932 198.514V198.594C33.1307 198.614 33.5384 198.703 33.9162 198.862C34.2973 199.021 34.6288 199.237 34.9105 199.509C35.1955 199.78 35.4176 200.097 35.5767 200.458C35.7358 200.819 35.8153 201.212 35.8153 201.636C35.8153 202.216 35.6662 202.733 35.3679 203.188C35.0729 203.638 34.6636 203.993 34.1399 204.251C33.6196 204.51 33.018 204.639 32.3352 204.639C31.732 204.639 31.1768 204.533 30.6697 204.321C30.1626 204.109 29.75 203.802 29.4318 203.401C29.1136 203 28.9347 202.518 28.8949 201.955ZM41.166 204.639C40.417 204.639 39.7789 204.435 39.252 204.028C38.725 203.617 38.3223 203.022 38.0439 202.243C37.7654 201.461 37.6262 200.516 37.6262 199.409C37.6262 198.309 37.7654 197.369 38.0439 196.59C38.3256 195.808 38.7299 195.211 39.2569 194.8C39.7872 194.386 40.4236 194.179 41.166 194.179C41.9084 194.179 42.5431 194.386 43.0701 194.8C43.6004 195.211 44.0048 195.808 44.2832 196.59C44.5649 197.369 44.7058 198.309 44.7058 199.409C44.7058 200.516 44.5666 201.461 44.2882 202.243C44.0098 203.022 43.6071 203.617 43.0801 204.028C42.5531 204.435 41.9151 204.639 41.166 204.639ZM41.166 203.545C41.9084 203.545 42.4851 203.187 42.8961 202.472C43.3071 201.756 43.5126 200.735 43.5126 199.409C43.5126 198.527 43.4181 197.777 43.2292 197.157C43.0436 196.537 42.7752 196.065 42.4238 195.74C42.0758 195.415 41.6565 195.253 41.166 195.253C40.4302 195.253 39.8552 195.616 39.4409 196.342C39.0266 197.064 38.8194 198.087 38.8194 199.409C38.8194 200.291 38.9122 201.04 39.0978 201.656C39.2834 202.273 39.5502 202.742 39.8983 203.063C40.2496 203.385 40.6722 203.545 41.166 203.545ZM49.916 204.639C49.167 204.639 48.5289 204.435 48.002 204.028C47.475 203.617 47.0723 203.022 46.7939 202.243C46.5154 201.461 46.3762 200.516 46.3762 199.409C46.3762 198.309 46.5154 197.369 46.7939 196.59C47.0756 195.808 47.4799 195.211 48.0069 194.8C48.5372 194.386 49.1736 194.179 49.916 194.179C50.6584 194.179 51.2931 194.386 51.8201 194.8C52.3504 195.211 52.7548 195.808 53.0332 196.59C53.3149 197.369 53.4558 198.309 53.4558 199.409C53.4558 200.516 53.3166 201.461 53.0382 202.243C52.7598 203.022 52.3571 203.617 51.8301 204.028C51.3031 204.435 50.6651 204.639 49.916 204.639ZM49.916 203.545C50.6584 203.545 51.2351 203.187 51.6461 202.472C52.0571 201.756 52.2626 200.735 52.2626 199.409C52.2626 198.527 52.1681 197.777 51.9792 197.157C51.7936 196.537 51.5252 196.065 51.1738 195.74C50.8258 195.415 50.4065 195.253 49.916 195.253C49.1802 195.253 48.6052 195.616 48.1909 196.342C47.7766 197.064 47.5694 198.087 47.5694 199.409C47.5694 200.291 47.6622 201.04 47.8478 201.656C48.0334 202.273 48.3002 202.742 48.6483 203.063C48.9996 203.385 49.4222 203.545 49.916 203.545Z" fill="black"/>
<path d="M29.054 236.667V235.772L32.4148 232.093C32.8092 231.662 33.134 231.287 33.3892 230.969C33.6444 230.648 33.8333 230.346 33.956 230.064C34.0819 229.779 34.1449 229.481 34.1449 229.169C34.1449 228.811 34.0587 228.501 33.8864 228.24C33.7173 227.978 33.4853 227.776 33.1903 227.633C32.8954 227.491 32.5639 227.419 32.196 227.419C31.8049 227.419 31.4635 227.501 31.1719 227.663C30.8835 227.822 30.6598 228.046 30.5007 228.334C30.3449 228.622 30.267 228.961 30.267 229.348H29.0938C29.0938 228.752 29.2313 228.228 29.5064 227.777C29.7815 227.327 30.156 226.975 30.63 226.723C31.1072 226.471 31.6425 226.345 32.2358 226.345C32.8324 226.345 33.361 226.471 33.8217 226.723C34.2824 226.975 34.6437 227.315 34.9055 227.742C35.1674 228.17 35.2983 228.646 35.2983 229.169C35.2983 229.544 35.2304 229.91 35.0945 230.268C34.9619 230.623 34.7299 231.019 34.3984 231.456C34.0703 231.89 33.6146 232.421 33.0312 233.047L30.7443 235.493V235.573H35.4773V236.667H29.054ZM40.8516 236.806C40.1025 236.806 39.4645 236.602 38.9375 236.194C38.4105 235.783 38.0078 235.188 37.7294 234.409C37.451 233.627 37.3118 232.683 37.3118 231.576C37.3118 230.475 37.451 229.536 37.7294 228.757C38.0111 227.975 38.4155 227.378 38.9425 226.967C39.4728 226.553 40.1091 226.345 40.8516 226.345C41.594 226.345 42.2287 226.553 42.7557 226.967C43.286 227.378 43.6903 227.975 43.9688 228.757C44.2505 229.536 44.3913 230.475 44.3913 231.576C44.3913 232.683 44.2521 233.627 43.9737 234.409C43.6953 235.188 43.2926 235.783 42.7656 236.194C42.2386 236.602 41.6006 236.806 40.8516 236.806ZM40.8516 235.712C41.594 235.712 42.1707 235.354 42.5817 234.638C42.9927 233.922 43.1982 232.901 43.1982 231.576C43.1982 230.694 43.1037 229.943 42.9148 229.323C42.7292 228.704 42.4607 228.231 42.1094 227.907C41.7614 227.582 41.3421 227.419 40.8516 227.419C40.1158 227.419 39.5407 227.782 39.1264 228.508C38.7121 229.231 38.505 230.253 38.505 231.576C38.505 232.457 38.5978 233.206 38.7834 233.823C38.969 234.439 39.2358 234.908 39.5838 235.23C39.9351 235.551 40.3577 235.712 40.8516 235.712ZM49.6016 236.806C48.8525 236.806 48.2145 236.602 47.6875 236.194C47.1605 235.783 46.7578 235.188 46.4794 234.409C46.201 233.627 46.0618 232.683 46.0618 231.576C46.0618 230.475 46.201 229.536 46.4794 228.757C46.7611 227.975 47.1655 227.378 47.6925 226.967C48.2228 226.553 48.8591 226.345 49.6016 226.345C50.344 226.345 50.9787 226.553 51.5057 226.967C52.036 227.378 52.4403 227.975 52.7188 228.757C53.0005 229.536 53.1413 230.475 53.1413 231.576C53.1413 232.683 53.0021 233.627 52.7237 234.409C52.4453 235.188 52.0426 235.783 51.5156 236.194C50.9886 236.602 50.3506 236.806 49.6016 236.806ZM49.6016 235.712C50.344 235.712 50.9207 235.354 51.3317 234.638C51.7427 233.922 51.9482 232.901 51.9482 231.576C51.9482 230.694 51.8537 229.943 51.6648 229.323C51.4792 228.704 51.2107 228.231 50.8594 227.907C50.5114 227.582 50.0921 227.419 49.6016 227.419C48.8658 227.419 48.2907 227.782 47.8764 228.508C47.4621 229.231 47.255 230.253 47.255 231.576C47.255 232.457 47.3478 233.206 47.5334 233.823C47.719 234.439 47.9858 234.908 48.3338 235.23C48.6851 235.551 49.1077 235.712 49.6016 235.712Z" fill="black"/>
<path d="M32.3153 258.651V268.833H31.0824V260.441H31.0028C30.9564 260.534 30.8371 260.64 30.6449 260.759C30.4527 260.875 30.2041 260.978 29.8991 261.067C29.5942 261.154 29.2462 261.197 28.8551 261.197V260.163C29.2495 260.163 29.5909 260.091 29.8793 259.949C30.1676 259.806 30.4079 259.639 30.6001 259.447C30.7957 259.254 30.9432 259.08 31.0426 258.925C31.1454 258.769 31.205 258.678 31.2216 258.651H32.3153ZM38.5547 268.972C37.8056 268.972 37.1676 268.768 36.6406 268.361C36.1136 267.95 35.7109 267.355 35.4325 266.576C35.1541 265.794 35.0149 264.849 35.0149 263.742C35.0149 262.642 35.1541 261.702 35.4325 260.923C35.7143 260.141 36.1186 259.544 36.6456 259.133C37.1759 258.719 37.8123 258.512 38.5547 258.512C39.2971 258.512 39.9318 258.719 40.4588 259.133C40.9891 259.544 41.3935 260.141 41.6719 260.923C41.9536 261.702 42.0945 262.642 42.0945 263.742C42.0945 264.849 41.9553 265.794 41.6768 266.576C41.3984 267.355 40.9957 267.95 40.4688 268.361C39.9418 268.768 39.3037 268.972 38.5547 268.972ZM38.5547 267.878C39.2971 267.878 39.8738 267.521 40.2848 266.805C40.6958 266.089 40.9013 265.068 40.9013 263.742C40.9013 262.86 40.8068 262.11 40.6179 261.49C40.4323 260.87 40.1638 260.398 39.8125 260.073C39.4645 259.748 39.0452 259.586 38.5547 259.586C37.8189 259.586 37.2438 259.949 36.8295 260.675C36.4152 261.397 36.2081 262.42 36.2081 263.742C36.2081 264.624 36.3009 265.373 36.4865 265.989C36.6721 266.606 36.9389 267.075 37.2869 267.396C37.6383 267.718 38.0608 267.878 38.5547 267.878ZM47.3047 268.972C46.5556 268.972 45.9176 268.768 45.3906 268.361C44.8636 267.95 44.4609 267.355 44.1825 266.576C43.9041 265.794 43.7649 264.849 43.7649 263.742C43.7649 262.642 43.9041 261.702 44.1825 260.923C44.4643 260.141 44.8686 259.544 45.3956 259.133C45.9259 258.719 46.5623 258.512 47.3047 258.512C48.0471 258.512 48.6818 258.719 49.2088 259.133C49.7391 259.544 50.1435 260.141 50.4219 260.923C50.7036 261.702 50.8445 262.642 50.8445 263.742C50.8445 264.849 50.7053 265.794 50.4268 266.576C50.1484 267.355 49.7457 267.95 49.2188 268.361C48.6918 268.768 48.0537 268.972 47.3047 268.972ZM47.3047 267.878C48.0471 267.878 48.6238 267.521 49.0348 266.805C49.4458 266.089 49.6513 265.068 49.6513 263.742C49.6513 262.86 49.5568 262.11 49.3679 261.49C49.1823 260.87 48.9138 260.398 48.5625 260.073C48.2145 259.748 47.7952 259.586 47.3047 259.586C46.5689 259.586 45.9938 259.949 45.5795 260.675C45.1652 261.397 44.9581 262.42 44.9581 263.742C44.9581 264.624 45.0509 265.373 45.2365 265.989C45.4221 266.606 45.6889 267.075 46.0369 267.396C46.3883 267.718 46.8108 267.878 47.3047 267.878Z" fill="black"/>
<path d="M44.5 301.139C43.7509 301.139 43.1129 300.935 42.5859 300.528C42.0589 300.117 41.6563 299.522 41.3778 298.743C41.0994 297.961 40.9602 297.016 40.9602 295.909C40.9602 294.809 41.0994 293.869 41.3778 293.09C41.6596 292.308 42.0639 291.711 42.5909 291.3C43.1212 290.886 43.7576 290.679 44.5 290.679C45.2424 290.679 45.8771 290.886 46.4041 291.3C46.9344 291.711 47.3388 292.308 47.6172 293.09C47.8989 293.869 48.0398 294.809 48.0398 295.909C48.0398 297.016 47.9006 297.961 47.6222 298.743C47.3438 299.522 46.9411 300.117 46.4141 300.528C45.8871 300.935 45.2491 301.139 44.5 301.139ZM44.5 300.045C45.2424 300.045 45.8191 299.687 46.2301 298.972C46.6411 298.256 46.8466 297.235 46.8466 295.909C46.8466 295.027 46.7521 294.277 46.5632 293.657C46.3776 293.037 46.1091 292.565 45.7578 292.24C45.4098 291.915 44.9905 291.753 44.5 291.753C43.7642 291.753 43.1892 292.116 42.7749 292.842C42.3606 293.564 42.1534 294.587 42.1534 295.909C42.1534 296.791 42.2462 297.54 42.4318 298.156C42.6174 298.773 42.8842 299.242 43.2322 299.563C43.5836 299.885 44.0062 300.045 44.5 300.045Z" fill="black"/>
<line x1="60" y1="296.5" x2="56" y2="296.5" stroke="#C4C4C4"/>
<line x1="60" y1="264.5" x2="56" y2="264.5" stroke="#C4C4C4"/>
<line x1="60" y1="232.5" x2="56" y2="232.5" stroke="#C4C4C4"/>
<line x1="60" y1="200.5" x2="56" y2="200.5" stroke="#C4C4C4"/>
<line x1="60" y1="168.5" x2="56" y2="168.5" stroke="#C4C4C4"/>
<line x1="60" y1="136.5" x2="56" y2="136.5" stroke="#C4C4C4"/>
<line x1="60.5" y1="310" x2="60.5" y2="125" stroke="#C4C4C4"/>
<path d="M50 23H28C27.4696 23 26.9609 23.2107 26.5858 23.5858C26.2107 23.9609 26 24.4696 26 25V43C26 43.5304 26.2107 44.0391 26.5858 44.4142C26.9609 44.7893 27.4696 45 28 45H50C50.5304 45 51.0391 44.7893 51.4142 44.4142C51.7893 44.0391 52 43.5304 52 43V25C52 24.4696 51.7893 23.9609 51.4142 23.5858C51.0391 23.2107 50.5304 23 50 23ZM48 40C48.2652 40 48.5196 40.1054 48.7071 40.2929C48.8946 40.4804 49 40.7348 49 41C49 41.2652 48.8946 41.5196 48.7071 41.7071C48.5196 41.8946 48.2652 42 48 42H30C29.7348 42 29.4804 41.8946 29.2929 41.7071C29.1054 41.5196 29 41.2652 29 41V27C29 26.7348 29.1054 26.4804 29.2929 26.2929C29.4804 26.1054 29.7348 26 30 26C30.2652 26 30.5196 26.1054 30.7071 26.2929C30.8946 26.4804 31 26.7348 31 27V34.865L35.36 31.2312C35.5257 31.0932 35.7316 31.0124 35.9469 31.0009C36.1623 30.9894 36.3756 31.0478 36.555 31.1675L41.93 34.7537L47.3563 30.2312C47.5601 30.0615 47.8231 29.9797 48.0873 30.0039C48.3515 30.028 48.5953 30.1561 48.765 30.36C48.9347 30.5639 49.0165 30.8268 48.9924 31.091C48.9682 31.3552 48.8401 31.599 48.6362 31.7688L42.6362 36.7687C42.4706 36.9068 42.2647 36.9876 42.0493 36.9991C41.834 37.0106 41.6207 36.9522 41.4412 36.8325L36.0662 33.2463L31 37.4688V40H48Z" fill="#FF4747"/>
<path d="M85.2159 30.5795H80.9659C80.8447 29.8826 80.6212 29.2652 80.2955 28.7273C79.9697 28.1818 79.5644 27.7197 79.0795 27.3409C78.5947 26.9621 78.0417 26.678 77.4205 26.4886C76.8068 26.2917 76.1439 26.1932 75.4318 26.1932C74.1667 26.1932 73.0455 26.5114 72.0682 27.1477C71.0909 27.7765 70.3258 28.7008 69.7727 29.9205C69.2197 31.1326 68.9432 32.6136 68.9432 34.3636C68.9432 36.1439 69.2197 37.6439 69.7727 38.8636C70.3333 40.0758 71.0985 40.9924 72.0682 41.6136C73.0455 42.2273 74.1629 42.5341 75.4205 42.5341C76.1174 42.5341 76.7689 42.4432 77.375 42.2614C77.9886 42.072 78.5379 41.7955 79.0227 41.4318C79.5152 41.0682 79.928 40.6212 80.2614 40.0909C80.6023 39.5606 80.8371 38.9545 80.9659 38.2727L85.2159 38.2955C85.0568 39.4015 84.7121 40.4394 84.1818 41.4091C83.6591 42.3788 82.9735 43.2348 82.125 43.9773C81.2765 44.7121 80.2841 45.2879 79.1477 45.7045C78.0114 46.1136 76.75 46.3182 75.3636 46.3182C73.3182 46.3182 71.4924 45.8447 69.8864 44.8977C68.2803 43.9508 67.0152 42.5833 66.0909 40.7955C65.1667 39.0076 64.7045 36.8636 64.7045 34.3636C64.7045 31.8561 65.1705 29.7121 66.1023 27.9318C67.0341 26.1439 68.303 24.7765 69.9091 23.8295C71.5152 22.8826 73.3333 22.4091 75.3636 22.4091C76.6591 22.4091 77.8636 22.5909 78.9773 22.9545C80.0909 23.3182 81.0833 23.8523 81.9545 24.5568C82.8258 25.2538 83.5417 26.1098 84.1023 27.125C84.6705 28.1326 85.0417 29.2841 85.2159 30.5795ZM96.5085 46.3409C94.804 46.3409 93.3267 45.9659 92.0767 45.2159C90.8267 44.4659 89.857 43.4167 89.1676 42.0682C88.4858 40.7197 88.1449 39.1439 88.1449 37.3409C88.1449 35.5379 88.4858 33.9583 89.1676 32.6023C89.857 31.2462 90.8267 30.1932 92.0767 29.4432C93.3267 28.6932 94.804 28.3182 96.5085 28.3182C98.2131 28.3182 99.6903 28.6932 100.94 29.4432C102.19 30.1932 103.156 31.2462 103.838 32.6023C104.527 33.9583 104.872 35.5379 104.872 37.3409C104.872 39.1439 104.527 40.7197 103.838 42.0682C103.156 43.4167 102.19 44.4659 100.94 45.2159C99.6903 45.9659 98.2131 46.3409 96.5085 46.3409ZM96.5312 43.0455C97.4555 43.0455 98.2282 42.7917 98.8494 42.2841C99.4706 41.7689 99.9328 41.0795 100.236 40.2159C100.546 39.3523 100.702 38.3902 100.702 37.3295C100.702 36.2614 100.546 35.2955 100.236 34.4318C99.9328 33.5606 99.4706 32.8674 98.8494 32.3523C98.2282 31.8371 97.4555 31.5795 96.5312 31.5795C95.5843 31.5795 94.7964 31.8371 94.1676 32.3523C93.5464 32.8674 93.0805 33.5606 92.7699 34.4318C92.4669 35.2955 92.3153 36.2614 92.3153 37.3295C92.3153 38.3902 92.4669 39.3523 92.7699 40.2159C93.0805 41.0795 93.5464 41.7689 94.1676 42.2841C94.7964 42.7917 95.5843 43.0455 96.5312 43.0455ZM108.364 46V28.5455H112.295V31.5114H112.5C112.864 30.5114 113.466 29.7311 114.307 29.1705C115.148 28.6023 116.152 28.3182 117.318 28.3182C118.5 28.3182 119.496 28.6061 120.307 29.1818C121.125 29.75 121.701 30.5265 122.034 31.5114H122.216C122.602 30.5417 123.254 29.7689 124.17 29.1932C125.095 28.6098 126.189 28.3182 127.455 28.3182C129.061 28.3182 130.371 28.8258 131.386 29.8409C132.402 30.8561 132.909 32.3371 132.909 34.2841V46H128.784V34.9205C128.784 33.8371 128.496 33.0455 127.92 32.5455C127.345 32.0379 126.64 31.7841 125.807 31.7841C124.814 31.7841 124.038 32.0947 123.477 32.7159C122.924 33.3295 122.648 34.1288 122.648 35.1136V46H118.614V34.75C118.614 33.8485 118.341 33.1288 117.795 32.5909C117.258 32.053 116.553 31.7841 115.682 31.7841C115.091 31.7841 114.553 31.9356 114.068 32.2386C113.583 32.5341 113.197 32.9545 112.909 33.5C112.621 34.0379 112.477 34.6667 112.477 35.3864V46H108.364ZM137.082 52.5455V28.5455H141.128V31.4318H141.366C141.579 31.0076 141.878 30.5568 142.264 30.0795C142.651 29.5947 143.173 29.1818 143.832 28.8409C144.491 28.4924 145.332 28.3182 146.355 28.3182C147.704 28.3182 148.92 28.6629 150.003 29.3523C151.094 30.0341 151.957 31.0455 152.594 32.3864C153.238 33.7197 153.56 35.3561 153.56 37.2955C153.56 39.2121 153.245 40.8409 152.616 42.1818C151.988 43.5227 151.132 44.5455 150.048 45.25C148.965 45.9545 147.738 46.3068 146.366 46.3068C145.366 46.3068 144.537 46.1402 143.878 45.8068C143.219 45.4735 142.688 45.072 142.287 44.6023C141.893 44.125 141.586 43.6742 141.366 43.25H141.196V52.5455H137.082ZM141.116 37.2727C141.116 38.4015 141.276 39.3902 141.594 40.2386C141.92 41.0871 142.385 41.75 142.991 42.2273C143.605 42.697 144.348 42.9318 145.219 42.9318C146.128 42.9318 146.889 42.6894 147.503 42.2045C148.116 41.7121 148.579 41.0417 148.889 40.1932C149.207 39.3371 149.366 38.3636 149.366 37.2727C149.366 36.1894 149.211 35.2273 148.901 34.3864C148.59 33.5455 148.128 32.8864 147.514 32.4091C146.901 31.9318 146.135 31.6932 145.219 31.6932C144.34 31.6932 143.594 31.9242 142.98 32.3864C142.366 32.8485 141.901 33.4962 141.582 34.3295C141.272 35.1629 141.116 36.1439 141.116 37.2727ZM161.196 22.7273V46H157.082V22.7273H161.196ZM165.426 46V28.5455H169.54V46H165.426ZM167.494 26.0682C166.843 26.0682 166.282 25.8523 165.812 25.4205C165.343 24.9811 165.108 24.4545 165.108 23.8409C165.108 23.2197 165.343 22.6932 165.812 22.2614C166.282 21.822 166.843 21.6023 167.494 21.6023C168.153 21.6023 168.714 21.822 169.176 22.2614C169.646 22.6932 169.881 23.2197 169.881 23.8409C169.881 24.4545 169.646 24.9811 169.176 25.4205C168.714 25.8523 168.153 26.0682 167.494 26.0682ZM178.793 46.3523C177.687 46.3523 176.69 46.1553 175.804 45.7614C174.925 45.3598 174.228 44.7689 173.713 43.9886C173.205 43.2083 172.952 42.2462 172.952 41.1023C172.952 40.1174 173.134 39.303 173.497 38.6591C173.861 38.0152 174.357 37.5 174.986 37.1136C175.615 36.7273 176.323 36.4356 177.111 36.2386C177.906 36.0341 178.728 35.8864 179.577 35.7955C180.599 35.6894 181.429 35.5947 182.065 35.5114C182.702 35.4205 183.164 35.2841 183.452 35.1023C183.747 34.9129 183.895 34.6212 183.895 34.2273V34.1591C183.895 33.303 183.641 32.6402 183.134 32.1705C182.626 31.7008 181.895 31.4659 180.94 31.4659C179.933 31.4659 179.134 31.6856 178.543 32.125C177.959 32.5644 177.565 33.0833 177.361 33.6818L173.52 33.1364C173.823 32.0758 174.323 31.1894 175.02 30.4773C175.717 29.7576 176.569 29.2197 177.577 28.8636C178.584 28.5 179.698 28.3182 180.918 28.3182C181.759 28.3182 182.596 28.4167 183.429 28.6136C184.262 28.8106 185.024 29.1364 185.713 29.5909C186.402 30.0379 186.955 30.6477 187.372 31.4205C187.796 32.1932 188.009 33.1591 188.009 34.3182V46H184.054V43.6023H183.918C183.668 44.0871 183.315 44.5417 182.861 44.9659C182.414 45.3826 181.849 45.7197 181.168 45.9773C180.493 46.2273 179.702 46.3523 178.793 46.3523ZM179.861 43.3295C180.687 43.3295 181.402 43.1667 182.009 42.8409C182.615 42.5076 183.08 42.0682 183.406 41.5227C183.74 40.9773 183.906 40.3826 183.906 39.7386V37.6818C183.777 37.7879 183.558 37.8864 183.247 37.9773C182.944 38.0682 182.603 38.1477 182.224 38.2159C181.846 38.2841 181.471 38.3447 181.099 38.3977C180.728 38.4508 180.406 38.4962 180.134 38.5341C179.52 38.6174 178.971 38.7538 178.486 38.9432C178.001 39.1326 177.618 39.3977 177.338 39.7386C177.058 40.072 176.918 40.5038 176.918 41.0341C176.918 41.7917 177.194 42.3636 177.747 42.75C178.3 43.1364 179.005 43.3295 179.861 43.3295ZM196.259 35.7727V46H192.145V28.5455H196.077V31.5114H196.281C196.683 30.5341 197.323 29.7576 198.202 29.1818C199.088 28.6061 200.183 28.3182 201.486 28.3182C202.69 28.3182 203.74 28.5758 204.634 29.0909C205.535 29.6061 206.232 30.3523 206.724 31.3295C207.224 32.3068 207.471 33.4924 207.463 34.8864V46H203.349V35.5227C203.349 34.3561 203.046 33.4432 202.44 32.7841C201.842 32.125 201.012 31.7955 199.952 31.7955C199.232 31.7955 198.592 31.9545 198.031 32.2727C197.478 32.5833 197.043 33.0341 196.724 33.625C196.414 34.2159 196.259 34.9318 196.259 35.7727ZM220.361 28.5455V31.7273H210.327V28.5455H220.361ZM212.804 24.3636H216.918V40.75C216.918 41.303 217.001 41.7273 217.168 42.0227C217.342 42.3106 217.569 42.5076 217.849 42.6136C218.13 42.7197 218.44 42.7727 218.781 42.7727C219.039 42.7727 219.274 42.7538 219.486 42.7159C219.705 42.678 219.872 42.6439 219.986 42.6136L220.679 45.8295C220.459 45.9053 220.145 45.9886 219.736 46.0795C219.334 46.1705 218.842 46.2235 218.259 46.2386C217.228 46.2689 216.3 46.1136 215.474 45.7727C214.649 45.4242 213.993 44.8864 213.509 44.1591C213.031 43.4318 212.796 42.5227 212.804 41.4318V24.3636ZM237.347 33.1591L233.597 33.5682C233.491 33.1894 233.305 32.8333 233.04 32.5C232.782 32.1667 232.434 31.8977 231.994 31.6932C231.555 31.4886 231.017 31.3864 230.381 31.3864C229.525 31.3864 228.805 31.572 228.222 31.9432C227.646 32.3144 227.362 32.7955 227.369 33.3864C227.362 33.8939 227.547 34.3068 227.926 34.625C228.313 34.9432 228.949 35.2045 229.835 35.4091L232.812 36.0455C234.464 36.4015 235.691 36.9659 236.494 37.7386C237.305 38.5114 237.714 39.5227 237.722 40.7727C237.714 41.8712 237.392 42.8409 236.756 43.6818C236.127 44.5152 235.252 45.1667 234.131 45.6364C233.009 46.1061 231.722 46.3409 230.267 46.3409C228.131 46.3409 226.411 45.8939 225.108 45C223.805 44.0985 223.028 42.8447 222.778 41.2386L226.79 40.8523C226.972 41.6402 227.358 42.2348 227.949 42.6364C228.54 43.0379 229.309 43.2386 230.256 43.2386C231.233 43.2386 232.017 43.0379 232.608 42.6364C233.206 42.2348 233.506 41.7386 233.506 41.1477C233.506 40.6477 233.313 40.2348 232.926 39.9091C232.547 39.5833 231.956 39.3333 231.153 39.1591L228.176 38.5341C226.502 38.1856 225.263 37.5985 224.46 36.7727C223.657 35.9394 223.259 34.8864 223.267 33.6136C223.259 32.5379 223.551 31.6061 224.142 30.8182C224.741 30.0227 225.57 29.4091 226.631 28.9773C227.699 28.5379 228.93 28.3182 230.324 28.3182C232.369 28.3182 233.979 28.7538 235.153 29.625C236.335 30.4962 237.066 31.6742 237.347 33.1591Z" fill="black"/>
<path d="M25.4716 95.5227V90.4943L38.8182 67.0909H44.9375L31.8977 90.0511V90.3239H52.625V95.5227H25.4716ZM42.125 102V94.0398L42.2614 91.7386V80.1818H48.0739V102H42.125ZM57.7301 90.767C57.7528 89.5852 57.9176 88.3977 58.2244 87.2045C58.5426 86 59.0426 84.7273 59.7244 83.3864C60.4063 82.0341 61.2983 80.5455 62.4006 78.9205L70.4119 67.0909H76.8892L68.179 79.8409C68.5994 79.7273 69.0369 79.6364 69.4915 79.5682C69.946 79.4886 70.4119 79.4489 70.8892 79.4489C73.0142 79.4489 74.9063 79.9318 76.5653 80.8977C78.2358 81.8636 79.5483 83.1989 80.5028 84.9034C81.4574 86.608 81.9347 88.5682 81.9347 90.7841C81.9347 93.0909 81.4119 95.125 80.3665 96.8864C79.3324 98.6364 77.9063 100.006 76.0881 100.994C74.2813 101.983 72.2244 102.477 69.9176 102.477C67.6562 102.477 65.5994 102 63.7472 101.045C61.9063 100.091 60.4403 98.7386 59.3494 96.9886C58.2585 95.2386 57.7188 93.1648 57.7301 90.767ZM63.8835 90.9034C63.8835 92.1648 64.1335 93.2841 64.6335 94.2614C65.1449 95.2386 65.8494 96.0057 66.7472 96.5625C67.6563 97.1193 68.7017 97.3977 69.8835 97.3977C71.054 97.3977 72.0881 97.125 72.9858 96.5795C73.8835 96.0227 74.5881 95.2614 75.0994 94.2955C75.6108 93.3182 75.8665 92.1989 75.8665 90.9375C75.8665 89.6761 75.6108 88.5625 75.0994 87.5966C74.5881 86.6193 73.8835 85.858 72.9858 85.3125C72.0881 84.7557 71.054 84.4773 69.8835 84.4773C68.7017 84.4773 67.6563 84.75 66.7472 85.2955C65.8494 85.8409 65.1449 86.5966 64.6335 87.5625C64.1335 88.5284 63.8835 89.642 63.8835 90.9034ZM99.8707 102.477C97.3366 102.477 95.0866 102.051 93.1207 101.199C91.1662 100.347 89.6321 99.1818 88.5185 97.7045C87.4162 96.2159 86.8707 94.5284 86.8821 92.642C86.8707 91.1761 87.1889 89.8295 87.8366 88.6023C88.4844 87.375 89.3594 86.3523 90.4616 85.5341C91.5753 84.7045 92.8139 84.1761 94.1776 83.9489V83.7102C92.3821 83.3125 90.9276 82.3977 89.8139 80.9659C88.7116 79.5227 88.1662 77.858 88.1776 75.9716C88.1662 74.1761 88.6662 72.5739 89.6776 71.1648C90.6889 69.7557 92.0753 68.6477 93.8366 67.8409C95.598 67.0227 97.6094 66.6136 99.8707 66.6136C102.109 66.6136 104.104 67.0227 105.854 67.8409C107.615 68.6477 109.001 69.7557 110.013 71.1648C111.036 72.5739 111.547 74.1761 111.547 75.9716C111.547 77.858 110.984 79.5227 109.859 80.9659C108.746 82.3977 107.308 83.3125 105.547 83.7102V83.9489C106.911 84.1761 108.138 84.7045 109.229 85.5341C110.331 86.3523 111.206 87.375 111.854 88.6023C112.513 89.8295 112.842 91.1761 112.842 92.642C112.842 94.5284 112.286 96.2159 111.172 97.7045C110.058 99.1818 108.524 100.347 106.57 101.199C104.626 102.051 102.393 102.477 99.8707 102.477ZM99.8707 97.6023C101.178 97.6023 102.314 97.3807 103.28 96.9375C104.246 96.483 104.996 95.8466 105.53 95.0284C106.064 94.2102 106.337 93.267 106.348 92.1989C106.337 91.0852 106.047 90.1023 105.479 89.25C104.922 88.3864 104.155 87.7102 103.178 87.2216C102.212 86.733 101.109 86.4886 99.8707 86.4886C98.6207 86.4886 97.5071 86.733 96.5298 87.2216C95.5526 87.7102 94.7798 88.3864 94.2116 89.25C93.6548 90.1023 93.3821 91.0852 93.3935 92.1989C93.3821 93.267 93.6435 94.2102 94.1776 95.0284C94.7116 95.8352 95.4616 96.4659 96.4276 96.9205C97.4048 97.375 98.5526 97.6023 99.8707 97.6023ZM99.8707 81.6989C100.939 81.6989 101.882 81.483 102.7 81.0511C103.53 80.6193 104.183 80.017 104.661 79.2443C105.138 78.4716 105.382 77.5795 105.393 76.5682C105.382 75.5682 105.143 74.6932 104.678 73.9432C104.212 73.1818 103.564 72.5966 102.734 72.1875C101.905 71.767 100.95 71.5568 99.8707 71.5568C98.7685 71.5568 97.7969 71.767 96.956 72.1875C96.1264 72.5966 95.4787 73.1818 95.0128 73.9432C94.5582 74.6932 94.3366 75.5682 94.348 76.5682C94.3366 77.5795 94.5639 78.4716 95.0298 79.2443C95.5071 80.0057 96.1605 80.608 96.9901 81.0511C97.831 81.483 98.7912 81.6989 99.8707 81.6989Z" fill="black"/>
<path fill-rule="evenodd" clip-rule="evenodd" d="M132.455 93.6078L138 92L136.62 97.6061L134.898 95.9532L132.121 98.8463C132.026 98.9445 131.896 99 131.76 99C131.624 99 131.494 98.9445 131.399 98.8463L129.36 96.722L126.361 99.8463C126.169 100.045 125.853 100.052 125.654 99.8607C125.455 99.6695 125.448 99.3529 125.639 99.1537L128.999 95.6537C129.094 95.5555 129.224 95.5 129.36 95.5C129.496 95.5 129.626 95.5555 129.721 95.6537L131.76 97.778L134.177 95.2607L132.455 93.6078Z" fill="#71DD8C"/>
<path d="M149.054 101V100.105L152.415 96.4261C152.809 95.9953 153.134 95.6207 153.389 95.3026C153.644 94.9811 153.833 94.6795 153.956 94.3977C154.082 94.1127 154.145 93.8144 154.145 93.5028C154.145 93.1449 154.059 92.835 153.886 92.5732C153.717 92.3113 153.485 92.1091 153.19 91.9666C152.895 91.8241 152.564 91.7528 152.196 91.7528C151.805 91.7528 151.464 91.834 151.172 91.9964C150.884 92.1555 150.66 92.3793 150.501 92.6676C150.345 92.956 150.267 93.294 150.267 93.6818H149.094C149.094 93.0852 149.231 92.5616 149.506 92.1108C149.781 91.66 150.156 91.3087 150.63 91.0568C151.107 90.8049 151.643 90.679 152.236 90.679C152.832 90.679 153.361 90.8049 153.822 91.0568C154.282 91.3087 154.644 91.6484 154.906 92.076C155.167 92.5036 155.298 92.9792 155.298 93.5028C155.298 93.8774 155.23 94.2436 155.094 94.6016C154.962 94.9562 154.73 95.3523 154.398 95.7898C154.07 96.224 153.615 96.7543 153.031 97.3807L150.744 99.8267V99.9062H155.477V101H149.054ZM157.531 101V100.105L160.891 96.4261C161.286 95.9953 161.611 95.6207 161.866 95.3026C162.121 94.9811 162.31 94.6795 162.433 94.3977C162.558 94.1127 162.621 93.8144 162.621 93.5028C162.621 93.1449 162.535 92.835 162.363 92.5732C162.194 92.3113 161.962 92.1091 161.667 91.9666C161.372 91.8241 161.04 91.7528 160.673 91.7528C160.281 91.7528 159.94 91.834 159.648 91.9964C159.36 92.1555 159.136 92.3793 158.977 92.6676C158.821 92.956 158.744 93.294 158.744 93.6818H157.57C157.57 93.0852 157.708 92.5616 157.983 92.1108C158.258 91.66 158.633 91.3087 159.107 91.0568C159.584 90.8049 160.119 90.679 160.712 90.679C161.309 90.679 161.838 90.8049 162.298 91.0568C162.759 91.3087 163.12 91.6484 163.382 92.076C163.644 92.5036 163.775 92.9792 163.775 93.5028C163.775 93.8774 163.707 94.2436 163.571 94.6016C163.438 94.9562 163.206 95.3523 162.875 95.7898C162.547 96.224 162.091 96.7543 161.508 97.3807L159.221 99.8267V99.9062H163.954V101H157.531ZM166.882 101.08C166.637 101.08 166.426 100.992 166.251 100.816C166.075 100.64 165.987 100.43 165.987 100.185C165.987 99.9394 166.075 99.7289 166.251 99.5533C166.426 99.3776 166.637 99.2898 166.882 99.2898C167.127 99.2898 167.338 99.3776 167.513 99.5533C167.689 99.7289 167.777 99.9394 167.777 100.185C167.777 100.347 167.736 100.496 167.653 100.632C167.573 100.768 167.465 100.877 167.33 100.96C167.197 101.04 167.048 101.08 166.882 101.08ZM169.624 98.9119V97.8977L173.701 90.8182H174.914L170.936 97.7386V97.8182H176.982V98.9119H169.624ZM174.417 101V98.6136V98.1314V94.6364H175.59V101H174.417ZM181.97 90.8182V101H180.737V92.608H180.657C180.611 92.7008 180.491 92.8068 180.299 92.9261C180.107 93.0421 179.858 93.1449 179.553 93.2344C179.249 93.3205 178.901 93.3636 178.509 93.3636V92.3295C178.904 92.3295 179.245 92.2583 179.534 92.1158C179.822 91.9732 180.062 91.8059 180.254 91.6136C180.45 91.4214 180.597 91.2474 180.697 91.0916C180.8 90.9358 180.859 90.8447 180.876 90.8182H181.97ZM190.078 99.0909V98.554C190.078 98.1828 190.155 97.843 190.307 97.5348C190.463 97.2232 190.688 96.9747 190.983 96.7891C191.281 96.6001 191.643 96.5057 192.067 96.5057C192.498 96.5057 192.859 96.6001 193.151 96.7891C193.442 96.9747 193.663 97.2232 193.812 97.5348C193.961 97.843 194.036 98.1828 194.036 98.554V99.0909C194.036 99.4621 193.959 99.8035 193.807 100.115C193.658 100.423 193.436 100.672 193.141 100.861C192.849 101.046 192.491 101.139 192.067 101.139C191.636 101.139 191.273 101.046 190.978 100.861C190.683 100.672 190.459 100.423 190.307 100.115C190.155 99.8035 190.078 99.4621 190.078 99.0909ZM191.093 98.554V99.0909C191.093 99.3991 191.165 99.6759 191.311 99.9212C191.457 100.163 191.709 100.284 192.067 100.284C192.415 100.284 192.66 100.163 192.803 99.9212C192.949 99.6759 193.021 99.3991 193.021 99.0909V98.554C193.021 98.2457 192.952 97.9706 192.813 97.7287C192.673 97.4834 192.425 97.3608 192.067 97.3608C191.719 97.3608 191.469 97.4834 191.316 97.7287C191.167 97.9706 191.093 98.2457 191.093 98.554ZM185.007 93.2642V92.7273C185.007 92.3561 185.084 92.0163 185.236 91.7081C185.392 91.3965 185.617 91.148 185.912 90.9624C186.21 90.7734 186.572 90.679 186.996 90.679C187.427 90.679 187.788 90.7734 188.08 90.9624C188.371 91.148 188.592 91.3965 188.741 91.7081C188.89 92.0163 188.965 92.3561 188.965 92.7273V93.2642C188.965 93.6354 188.888 93.9768 188.736 94.2884C188.587 94.5966 188.365 94.8452 188.07 95.0341C187.778 95.2197 187.42 95.3125 186.996 95.3125C186.565 95.3125 186.202 95.2197 185.907 95.0341C185.612 94.8452 185.388 94.5966 185.236 94.2884C185.084 93.9768 185.007 93.6354 185.007 93.2642ZM186.021 92.7273V93.2642C186.021 93.5724 186.094 93.8492 186.24 94.0945C186.386 94.3364 186.638 94.4574 186.996 94.4574C187.344 94.4574 187.589 94.3364 187.732 94.0945C187.878 93.8492 187.95 93.5724 187.95 93.2642V92.7273C187.95 92.419 187.881 92.1439 187.742 91.902C187.602 91.6567 187.354 91.5341 186.996 91.5341C186.648 91.5341 186.398 91.6567 186.245 91.902C186.096 92.1439 186.021 92.419 186.021 92.7273ZM185.385 101L192.385 90.8182H193.519L186.519 101H185.385Z" fill="#71DD8C"/>
<circle cx="700" cy="71" r="5" fill="#AEAEB2"/>
<circle cx="808" cy="71" r="5" fill="black"/>
<path d="M710.084 68.006V66.2H717.364V68.006H714.718V76H712.716V68.006H710.084ZM720.154 65.08V76H718.334V65.08H720.154ZM722.492 72.08C722.492 71.6507 722.408 71.324 722.24 71.1C722.081 70.876 721.81 70.764 721.428 70.764C721.176 70.764 720.952 70.82 720.756 70.932C720.56 71.0347 720.41 71.184 720.308 71.38C720.205 71.576 720.154 71.8093 720.154 72.08H719.79C719.79 71.5667 719.874 71.1047 720.042 70.694C720.219 70.2833 720.48 69.9567 720.826 69.714C721.171 69.4713 721.596 69.35 722.1 69.35C722.604 69.35 723.019 69.4433 723.346 69.63C723.672 69.8167 723.915 70.0967 724.074 70.47C724.232 70.834 724.312 71.282 724.312 71.814V76H722.492V72.08ZM726.015 67.068C726.015 66.7693 726.122 66.5267 726.337 66.34C726.552 66.144 726.808 66.046 727.107 66.046C727.406 66.046 727.658 66.144 727.863 66.34C728.078 66.5267 728.185 66.7693 728.185 67.068C728.185 67.3573 728.078 67.6 727.863 67.796C727.658 67.992 727.406 68.09 727.107 68.09C726.808 68.09 726.552 67.992 726.337 67.796C726.122 67.6 726.015 67.3573 726.015 67.068ZM726.211 69.56H727.975V76H726.211V69.56ZM730.222 73.774C730.493 74.026 730.745 74.2313 730.978 74.39C731.211 74.5393 731.431 74.6513 731.636 74.726C731.851 74.8007 732.051 74.838 732.238 74.838C732.481 74.838 732.667 74.7867 732.798 74.684C732.929 74.572 732.994 74.4227 732.994 74.236C732.994 74.068 732.938 73.928 732.826 73.816C732.723 73.6947 732.569 73.5873 732.364 73.494C732.159 73.4007 731.897 73.3027 731.58 73.2C731.281 73.088 730.992 72.9573 730.712 72.808C730.432 72.6493 730.199 72.444 730.012 72.192C729.835 71.9307 729.746 71.5993 729.746 71.198C729.746 70.8153 729.849 70.4933 730.054 70.232C730.259 69.9613 730.535 69.7607 730.88 69.63C731.235 69.49 731.627 69.42 732.056 69.42C732.42 69.42 732.761 69.4667 733.078 69.56C733.395 69.6533 733.689 69.7793 733.96 69.938C734.231 70.0873 734.469 70.2647 734.674 70.47L733.876 71.59C733.643 71.338 733.363 71.1327 733.036 70.974C732.719 70.8153 732.406 70.736 732.098 70.736C731.893 70.736 731.729 70.778 731.608 70.862C731.496 70.9367 731.44 71.0533 731.44 71.212C731.44 71.352 731.496 71.478 731.608 71.59C731.729 71.6927 731.897 71.786 732.112 71.87C732.336 71.954 732.588 72.0567 732.868 72.178C733.213 72.3087 733.531 72.458 733.82 72.626C734.119 72.7847 734.357 72.9853 734.534 73.228C734.711 73.4707 734.8 73.788 734.8 74.18C734.8 74.824 734.59 75.328 734.17 75.692C733.75 76.0467 733.171 76.224 732.434 76.224C731.977 76.224 731.557 76.1633 731.174 76.042C730.801 75.9207 730.46 75.762 730.152 75.566C729.853 75.3607 729.583 75.1413 729.34 74.908L730.222 73.774ZM742.574 70.498L741.944 76H739.858L741.314 65.71L745.416 72.038L749.518 65.71L750.974 76H748.888L748.258 70.498L745.416 75.09L742.574 70.498ZM751.942 72.78C751.942 72.108 752.096 71.52 752.404 71.016C752.722 70.512 753.146 70.12 753.678 69.84C754.22 69.56 754.831 69.42 755.512 69.42C756.194 69.42 756.8 69.56 757.332 69.84C757.874 70.12 758.298 70.512 758.606 71.016C758.924 71.52 759.082 72.108 759.082 72.78C759.082 73.4427 758.924 74.0307 758.606 74.544C758.298 75.048 757.874 75.44 757.332 75.72C756.8 76 756.194 76.14 755.512 76.14C754.831 76.14 754.22 76 753.678 75.72C753.146 75.44 752.722 75.048 752.404 74.544C752.096 74.0307 751.942 73.4427 751.942 72.78ZM753.79 72.78C753.79 73.144 753.865 73.466 754.014 73.746C754.173 74.0167 754.383 74.2313 754.644 74.39C754.906 74.5393 755.195 74.614 755.512 74.614C755.83 74.614 756.119 74.5393 756.38 74.39C756.642 74.2313 756.847 74.0167 756.996 73.746C757.155 73.466 757.234 73.144 757.234 72.78C757.234 72.416 757.155 72.094 756.996 71.814C756.847 71.534 756.642 71.3193 756.38 71.17C756.119 71.0207 755.83 70.946 755.512 70.946C755.195 70.946 754.906 71.0207 754.644 71.17C754.383 71.3193 754.173 71.534 754.014 71.814C753.865 72.094 753.79 72.416 753.79 72.78ZM764.601 72.08C764.601 71.6507 764.517 71.324 764.349 71.1C764.181 70.876 763.91 70.764 763.537 70.764C763.285 70.764 763.061 70.82 762.865 70.932C762.669 71.0347 762.52 71.184 762.417 71.38C762.314 71.576 762.263 71.8093 762.263 72.08V76H760.443V69.56H762.263V70.54C762.459 70.176 762.716 69.9007 763.033 69.714C763.36 69.518 763.752 69.42 764.209 69.42C764.974 69.42 765.544 69.6393 765.917 70.078C766.29 70.5073 766.477 71.1093 766.477 71.884V76H764.601V72.08ZM767.437 69.56H771.413V71.086H767.437V69.56ZM768.543 67.32H770.293V76H768.543V67.32ZM774.198 65.08V76H772.378V65.08H774.198ZM776.536 72.08C776.536 71.6507 776.452 71.324 776.284 71.1C776.126 70.876 775.855 70.764 775.472 70.764C775.22 70.764 774.996 70.82 774.8 70.932C774.604 71.0347 774.455 71.184 774.352 71.38C774.25 71.576 774.198 71.8093 774.198 72.08H773.834C773.834 71.5667 773.918 71.1047 774.086 70.694C774.264 70.2833 774.525 69.9567 774.87 69.714C775.216 69.4713 775.64 69.35 776.144 69.35C776.648 69.35 777.064 69.4433 777.39 69.63C777.717 69.8167 777.96 70.0967 778.118 70.47C778.277 70.834 778.356 71.282 778.356 71.814V76H776.536V72.08Z" fill="black"/>
<path d="M817.064 66.2H819.066V74.25H822.972V76H817.064V66.2ZM825.239 73.998C825.239 74.1847 825.285 74.348 825.379 74.488C825.472 74.6187 825.598 74.7213 825.757 74.796C825.925 74.8613 826.107 74.894 826.303 74.894C826.583 74.894 826.835 74.838 827.059 74.726C827.283 74.6047 827.465 74.4367 827.605 74.222C827.745 73.998 827.815 73.732 827.815 73.424L828.039 74.264C828.039 74.6747 827.922 75.02 827.689 75.3C827.465 75.58 827.171 75.79 826.807 75.93C826.452 76.07 826.079 76.14 825.687 76.14C825.285 76.14 824.912 76.0607 824.567 75.902C824.221 75.7433 823.941 75.5147 823.727 75.216C823.521 74.908 823.419 74.5347 823.419 74.096C823.419 73.4707 823.638 72.976 824.077 72.612C824.515 72.248 825.136 72.066 825.939 72.066C826.349 72.066 826.709 72.108 827.017 72.192C827.334 72.276 827.6 72.3787 827.815 72.5C828.029 72.6213 828.183 72.738 828.277 72.85V73.69C828.025 73.5033 827.74 73.3633 827.423 73.27C827.115 73.1767 826.788 73.13 826.443 73.13C826.163 73.13 825.934 73.1673 825.757 73.242C825.579 73.3073 825.449 73.4053 825.365 73.536C825.281 73.6573 825.239 73.8113 825.239 73.998ZM824.539 71.38L823.867 70.148C824.203 69.9707 824.613 69.8027 825.099 69.644C825.584 69.476 826.125 69.392 826.723 69.392C827.273 69.392 827.763 69.4713 828.193 69.63C828.622 69.7887 828.958 70.022 829.201 70.33C829.443 70.6287 829.565 70.9973 829.565 71.436V76H827.815V71.814C827.815 71.6367 827.787 71.4873 827.731 71.366C827.675 71.2353 827.586 71.128 827.465 71.044C827.353 70.96 827.217 70.8993 827.059 70.862C826.9 70.8247 826.723 70.806 826.527 70.806C826.228 70.806 825.943 70.8387 825.673 70.904C825.402 70.9693 825.169 71.0487 824.973 71.142C824.777 71.2353 824.632 71.3147 824.539 71.38ZM831.573 73.774C831.844 74.026 832.096 74.2313 832.329 74.39C832.563 74.5393 832.782 74.6513 832.987 74.726C833.202 74.8007 833.403 74.838 833.589 74.838C833.832 74.838 834.019 74.7867 834.149 74.684C834.28 74.572 834.345 74.4227 834.345 74.236C834.345 74.068 834.289 73.928 834.177 73.816C834.075 73.6947 833.921 73.5873 833.715 73.494C833.51 73.4007 833.249 73.3027 832.931 73.2C832.633 73.088 832.343 72.9573 832.063 72.808C831.783 72.6493 831.55 72.444 831.363 72.192C831.186 71.9307 831.097 71.5993 831.097 71.198C831.097 70.8153 831.2 70.4933 831.405 70.232C831.611 69.9613 831.886 69.7607 832.231 69.63C832.586 69.49 832.978 69.42 833.407 69.42C833.771 69.42 834.112 69.4667 834.429 69.56C834.747 69.6533 835.041 69.7793 835.311 69.938C835.582 70.0873 835.82 70.2647 836.025 70.47L835.227 71.59C834.994 71.338 834.714 71.1327 834.387 70.974C834.07 70.8153 833.757 70.736 833.449 70.736C833.244 70.736 833.081 70.778 832.959 70.862C832.847 70.9367 832.791 71.0533 832.791 71.212C832.791 71.352 832.847 71.478 832.959 71.59C833.081 71.6927 833.249 71.786 833.463 71.87C833.687 71.954 833.939 72.0567 834.219 72.178C834.565 72.3087 834.882 72.458 835.171 72.626C835.47 72.7847 835.708 72.9853 835.885 73.228C836.063 73.4707 836.151 73.788 836.151 74.18C836.151 74.824 835.941 75.328 835.521 75.692C835.101 76.0467 834.523 76.224 833.785 76.224C833.328 76.224 832.908 76.1633 832.525 76.042C832.152 75.9207 831.811 75.762 831.503 75.566C831.205 75.3607 830.934 75.1413 830.691 74.908L831.573 73.774ZM836.578 69.56H840.554V71.086H836.578V69.56ZM837.684 67.32H839.434V76H837.684V67.32ZM848.04 70.498L847.41 76H845.324L846.78 65.71L850.882 72.038L854.984 65.71L856.44 76H854.354L853.724 70.498L850.882 75.09L848.04 70.498ZM857.409 72.78C857.409 72.108 857.563 71.52 857.871 71.016C858.189 70.512 858.613 70.12 859.145 69.84C859.687 69.56 860.298 69.42 860.979 69.42C861.661 69.42 862.267 69.56 862.799 69.84C863.341 70.12 863.765 70.512 864.073 71.016C864.391 71.52 864.549 72.108 864.549 72.78C864.549 73.4427 864.391 74.0307 864.073 74.544C863.765 75.048 863.341 75.44 862.799 75.72C862.267 76 861.661 76.14 860.979 76.14C860.298 76.14 859.687 76 859.145 75.72C858.613 75.44 858.189 75.048 857.871 74.544C857.563 74.0307 857.409 73.4427 857.409 72.78ZM859.257 72.78C859.257 73.144 859.332 73.466 859.481 73.746C859.64 74.0167 859.85 74.2313 860.111 74.39C860.373 74.5393 860.662 74.614 860.979 74.614C861.297 74.614 861.586 74.5393 861.847 74.39C862.109 74.2313 862.314 74.0167 862.463 73.746C862.622 73.466 862.701 73.144 862.701 72.78C862.701 72.416 862.622 72.094 862.463 71.814C862.314 71.534 862.109 71.3193 861.847 71.17C861.586 71.0207 861.297 70.946 860.979 70.946C860.662 70.946 860.373 71.0207 860.111 71.17C859.85 71.3193 859.64 71.534 859.481 71.814C859.332 72.094 859.257 72.416 859.257 72.78ZM870.068 72.08C870.068 71.6507 869.984 71.324 869.816 71.1C869.648 70.876 869.377 70.764 869.004 70.764C868.752 70.764 868.528 70.82 868.332 70.932C868.136 71.0347 867.986 71.184 867.884 71.38C867.781 71.576 867.73 71.8093 867.73 72.08V76H865.91V69.56H867.73V70.54C867.926 70.176 868.182 69.9007 868.5 69.714C868.826 69.518 869.218 69.42 869.676 69.42C870.441 69.42 871.01 69.6393 871.384 70.078C871.757 70.5073 871.944 71.1093 871.944 71.884V76H870.068V72.08ZM872.904 69.56H876.88V71.086H872.904V69.56ZM874.01 67.32H875.76V76H874.01V67.32ZM879.665 65.08V76H877.845V65.08H879.665ZM882.003 72.08C882.003 71.6507 881.919 71.324 881.751 71.1C881.593 70.876 881.322 70.764 880.939 70.764C880.687 70.764 880.463 70.82 880.267 70.932C880.071 71.0347 879.922 71.184 879.819 71.38C879.717 71.576 879.665 71.8093 879.665 72.08H879.301C879.301 71.5667 879.385 71.1047 879.553 70.694C879.731 70.2833 879.992 69.9567 880.337 69.714C880.683 69.4713 881.107 69.35 881.611 69.35C882.115 69.35 882.531 69.4433 882.857 69.63C883.184 69.8167 883.427 70.0967 883.585 70.47C883.744 70.834 883.823 71.282 883.823 71.814V76H882.003V72.08Z" fill="black"/>
<rect x="599" y="61" width="60" height="20" rx="10" fill="#3A3A3A"/>
<path d="M607.16 74.912C607.272 75.032 607.412 75.128 607.58 75.2C607.748 75.28 607.928 75.32 608.12 75.32C608.304 75.32 608.48 75.244 608.648 75.092C608.824 74.94 608.912 74.68 608.912 74.312V65.6H610.712V74.672C610.712 75.048 610.648 75.368 610.52 75.632C610.4 75.904 610.224 76.124 609.992 76.292C609.768 76.468 609.504 76.596 609.2 76.676C608.904 76.756 608.584 76.796 608.24 76.796C607.96 76.796 607.692 76.76 607.436 76.688C607.172 76.616 606.94 76.532 606.74 76.436C606.532 76.34 606.364 76.244 606.236 76.148L607.16 74.912ZM613.493 72.284C613.493 72.444 613.533 72.584 613.613 72.704C613.693 72.816 613.801 72.904 613.937 72.968C614.081 73.024 614.237 73.052 614.405 73.052C614.645 73.052 614.861 73.004 615.053 72.908C615.245 72.804 615.401 72.66 615.521 72.476C615.641 72.284 615.701 72.056 615.701 71.792L615.893 72.512C615.893 72.864 615.793 73.16 615.593 73.4C615.401 73.64 615.149 73.82 614.837 73.94C614.533 74.06 614.213 74.12 613.877 74.12C613.533 74.12 613.213 74.052 612.917 73.916C612.621 73.78 612.381 73.584 612.197 73.328C612.021 73.064 611.933 72.744 611.933 72.368C611.933 71.832 612.121 71.408 612.497 71.096C612.873 70.784 613.405 70.628 614.093 70.628C614.445 70.628 614.753 70.664 615.017 70.736C615.289 70.808 615.517 70.896 615.701 71C615.885 71.104 616.017 71.204 616.097 71.3V72.02C615.881 71.86 615.637 71.74 615.365 71.66C615.101 71.58 614.821 71.54 614.525 71.54C614.285 71.54 614.089 71.572 613.937 71.636C613.785 71.692 613.673 71.776 613.601 71.888C613.529 71.992 613.493 72.124 613.493 72.284ZM612.893 70.04L612.317 68.984C612.605 68.832 612.957 68.688 613.373 68.552C613.789 68.408 614.253 68.336 614.765 68.336C615.237 68.336 615.657 68.404 616.025 68.54C616.393 68.676 616.681 68.876 616.889 69.14C617.097 69.396 617.201 69.712 617.201 70.088V74H615.701V70.412C615.701 70.26 615.677 70.132 615.629 70.028C615.581 69.916 615.505 69.824 615.401 69.752C615.305 69.68 615.189 69.628 615.053 69.596C614.917 69.564 614.765 69.548 614.597 69.548C614.341 69.548 614.097 69.576 613.865 69.632C613.633 69.688 613.433 69.756 613.265 69.836C613.097 69.916 612.973 69.984 612.893 70.04ZM622.211 70.64C622.211 70.272 622.139 69.992 621.995 69.8C621.851 69.608 621.619 69.512 621.299 69.512C621.083 69.512 620.891 69.56 620.723 69.656C620.555 69.744 620.427 69.872 620.339 70.04C620.251 70.208 620.207 70.408 620.207 70.64V74H618.647V68.48H620.207V69.32C620.375 69.008 620.595 68.772 620.867 68.612C621.147 68.444 621.483 68.36 621.875 68.36C622.531 68.36 623.019 68.548 623.339 68.924C623.659 69.292 623.819 69.808 623.819 70.472V74H622.211V70.64ZM626.958 71.84C626.958 72.2 627.03 72.48 627.174 72.68C627.318 72.872 627.55 72.968 627.87 72.968C628.094 72.968 628.286 72.924 628.446 72.836C628.614 72.74 628.742 72.608 628.83 72.44C628.926 72.272 628.974 72.072 628.974 71.84V68.48H630.522V74H628.974V73.16C628.798 73.472 628.574 73.712 628.302 73.88C628.03 74.04 627.698 74.12 627.306 74.12C626.65 74.12 626.158 73.932 625.83 73.556C625.51 73.18 625.35 72.664 625.35 72.008V68.48H626.958V71.84ZM633.157 72.284C633.157 72.444 633.197 72.584 633.277 72.704C633.357 72.816 633.465 72.904 633.601 72.968C633.745 73.024 633.901 73.052 634.069 73.052C634.309 73.052 634.525 73.004 634.717 72.908C634.909 72.804 635.065 72.66 635.185 72.476C635.305 72.284 635.365 72.056 635.365 71.792L635.557 72.512C635.557 72.864 635.457 73.16 635.257 73.4C635.065 73.64 634.813 73.82 634.501 73.94C634.197 74.06 633.877 74.12 633.541 74.12C633.197 74.12 632.877 74.052 632.581 73.916C632.285 73.78 632.045 73.584 631.861 73.328C631.685 73.064 631.597 72.744 631.597 72.368C631.597 71.832 631.785 71.408 632.161 71.096C632.537 70.784 633.069 70.628 633.757 70.628C634.109 70.628 634.417 70.664 634.681 70.736C634.953 70.808 635.181 70.896 635.365 71C635.549 71.104 635.681 71.204 635.761 71.3V72.02C635.545 71.86 635.301 71.74 635.029 71.66C634.765 71.58 634.485 71.54 634.189 71.54C633.949 71.54 633.753 71.572 633.601 71.636C633.449 71.692 633.337 71.776 633.265 71.888C633.193 71.992 633.157 72.124 633.157 72.284ZM632.557 70.04L631.981 68.984C632.269 68.832 632.621 68.688 633.037 68.552C633.453 68.408 633.917 68.336 634.429 68.336C634.901 68.336 635.321 68.404 635.689 68.54C636.057 68.676 636.345 68.876 636.553 69.14C636.761 69.396 636.865 69.712 636.865 70.088V74H635.365V70.412C635.365 70.26 635.341 70.132 635.293 70.028C635.245 69.916 635.169 69.824 635.065 69.752C634.969 69.68 634.853 69.628 634.717 69.596C634.581 69.564 634.429 69.548 634.261 69.548C634.005 69.548 633.761 69.576 633.529 69.632C633.297 69.688 633.097 69.756 632.929 69.836C632.761 69.916 632.637 69.984 632.557 70.04ZM639.835 68.48V74H638.311V68.48H639.835ZM641.455 70.1C641.351 70.004 641.243 69.932 641.131 69.884C641.027 69.828 640.895 69.8 640.735 69.8C640.543 69.8 640.379 69.852 640.243 69.956C640.107 70.06 640.003 70.208 639.931 70.4C639.867 70.584 639.835 70.808 639.835 71.072L639.403 70.64C639.403 70.2 639.487 69.812 639.655 69.476C639.823 69.132 640.043 68.86 640.315 68.66C640.587 68.452 640.867 68.348 641.155 68.348C641.355 68.348 641.543 68.384 641.719 68.456C641.903 68.528 642.051 68.636 642.163 68.78L641.455 70.1ZM648.606 68.48L645.006 76.64H643.41L644.802 73.448L642.51 68.48H644.238L646.014 72.872L645.246 72.848L646.986 68.48H648.606Z" fill="white"/>
<defs>
<radialGradient id="paint0_radial_42_56" cx="0" cy="0" r="1" gradientUnits="userSpaceOnUse" gradientTransform="translate(484.499 154.229) rotate(90) scale(149.875 410.499)">
<stop stop-opacity="0.1"/>
<stop offset="1" stop-opacity="0"/>
</radialGradient>
</defs>
</svg>
