<svg width="97" height="33" viewBox="0 0 97 33" fill="none" xmlns="http://www.w3.org/2000/svg">
<path d="M8.22266 0V25.293H13.2227V31.6211H0V0H8.22266ZM23.125 0V4.12109H15V0H23.125ZM23.125 5.70312V31.6211H15V5.70312H23.125ZM43.9258 0V31.6211H36.0352V29.7461C35.2799 30.5273 34.4857 31.1133 33.6523 31.5039C32.819 31.8945 31.9466 32.0898 31.0352 32.0898C29.8112 32.0898 28.75 31.7708 27.8516 31.1328C26.9531 30.4818 26.3737 29.7331 26.1133 28.8867C25.8659 28.0404 25.7422 26.6602 25.7422 24.7461V12.6172C25.7422 10.625 25.8659 9.21224 26.1133 8.37891C26.3737 7.54557 26.9596 6.81641 27.8711 6.19141C28.7826 5.55339 29.8698 5.23438 31.1328 5.23438C32.1094 5.23438 33.0013 5.41016 33.8086 5.76172C34.6289 6.11328 35.3711 6.64062 36.0352 7.34375V0H43.9258ZM36.0352 12.2266C36.0352 11.276 35.9505 10.638 35.7812 10.3125C35.625 9.98698 35.306 9.82422 34.8242 9.82422C34.3555 9.82422 34.0365 9.97396 33.8672 10.2734C33.7109 10.5599 33.6328 11.2109 33.6328 12.2266V24.9219C33.6328 25.9766 33.7109 26.6732 33.8672 27.0117C34.0234 27.3372 34.3229 27.5 34.7656 27.5C35.2734 27.5 35.612 27.3177 35.7812 26.9531C35.9505 26.5755 36.0352 25.6641 36.0352 24.2188V12.2266ZM64.6289 19.1211H54.4141V24.7266C54.4141 25.8984 54.4987 26.6536 54.668 26.9922C54.8372 27.3307 55.1628 27.5 55.6445 27.5C56.2435 27.5 56.6406 27.2786 56.8359 26.8359C57.0443 26.3802 57.1484 25.5078 57.1484 24.2188V20.8008H64.6289V22.7148C64.6289 24.3164 64.5247 25.5469 64.3164 26.4062C64.1211 27.2656 63.6523 28.1836 62.9102 29.1602C62.168 30.1367 61.224 30.8724 60.0781 31.3672C58.9453 31.849 57.5195 32.0898 55.8008 32.0898C54.1341 32.0898 52.6628 31.849 51.3867 31.3672C50.1107 30.8854 49.1146 30.2279 48.3984 29.3945C47.6953 28.5482 47.207 27.6237 46.9336 26.6211C46.6602 25.6055 46.5234 24.1341 46.5234 22.207V14.6484C46.5234 12.3828 46.8294 10.599 47.4414 9.29688C48.0534 7.98177 49.056 6.97917 50.4492 6.28906C51.8424 5.58594 53.444 5.23438 55.2539 5.23438C57.4674 5.23438 59.2904 5.65755 60.7227 6.50391C62.168 7.33724 63.1771 8.45052 63.75 9.84375C64.3359 11.224 64.6289 13.1706 64.6289 15.6836V19.1211ZM56.7188 14.9023V13.0078C56.7188 11.6667 56.6471 10.8008 56.5039 10.4102C56.3607 10.0195 56.0677 9.82422 55.625 9.82422C55.0781 9.82422 54.7396 9.99349 54.6094 10.332C54.4792 10.6576 54.4141 11.5495 54.4141 13.0078V14.9023H56.7188ZM75.5469 2.24609V6.32812H77.6758V10.4297H75.5469V24.2969C75.5469 26.0026 75.6315 26.9531 75.8008 27.1484C75.9831 27.3438 76.7188 27.4414 78.0078 27.4414V31.6211H74.8242C73.0273 31.6211 71.7448 31.5495 70.9766 31.4062C70.2083 31.25 69.5312 30.9049 68.9453 30.3711C68.3594 29.8242 67.9948 29.2057 67.8516 28.5156C67.7083 27.8125 67.6367 26.1719 67.6367 23.5938V10.4297H65.9375V6.32812H67.6367V2.24609H75.5469ZM86.4648 15.7422H79.0625V14.0039C79.0625 11.9987 79.2904 10.4557 79.7461 9.375C80.2148 8.28125 81.1458 7.31771 82.5391 6.48438C83.9323 5.65104 85.7422 5.23438 87.9688 5.23438C90.638 5.23438 92.6497 5.70964 94.0039 6.66016C95.3581 7.59766 96.1719 8.75651 96.4453 10.1367C96.7188 11.5039 96.8555 14.3294 96.8555 18.6133V31.6211H89.1797V29.3164C88.6979 30.2409 88.0729 30.9375 87.3047 31.4062C86.5495 31.862 85.6445 32.0898 84.5898 32.0898C83.2096 32.0898 81.9401 31.7057 80.7812 30.9375C79.6354 30.1562 79.0625 28.457 79.0625 25.8398V23.7109C79.0625 21.7708 79.3685 20.4492 79.9805 19.7461C80.5924 19.043 82.1094 18.2227 84.5312 17.2852C87.1224 16.2695 88.5091 15.5859 88.6914 15.2344C88.8737 14.8828 88.9648 14.1667 88.9648 13.0859C88.9648 11.7318 88.8607 10.8529 88.6523 10.4492C88.457 10.0326 88.125 9.82422 87.6562 9.82422C87.1224 9.82422 86.7904 10 86.6602 10.3516C86.5299 10.6901 86.4648 11.582 86.4648 13.0273V15.7422ZM88.9648 19.2969C87.7018 20.2214 86.9661 20.9961 86.7578 21.6211C86.5625 22.2461 86.4648 23.1445 86.4648 24.3164C86.4648 25.6576 86.5495 26.5234 86.7188 26.9141C86.901 27.3047 87.2526 27.5 87.7734 27.5C88.2682 27.5 88.5872 27.3503 88.7305 27.0508C88.8867 26.7383 88.9648 25.931 88.9648 24.6289V19.2969Z" fill="black"/>
</svg>
