<svg width="30" height="33" viewBox="0 0 30 33" fill="none" xmlns="http://www.w3.org/2000/svg">
<path d="M17.595 30C17.3313 30.4546 16.9528 30.832 16.4973 31.0943C16.0419 31.3566 15.5256 31.4947 15 31.4947C14.4744 31.4947 13.9581 31.3566 13.5027 31.0943C13.0472 30.832 12.6687 30.4546 12.405 30M24 10.5C24 8.11305 23.0518 5.82387 21.364 4.13604C19.6761 2.44821 17.3869 1.5 15 1.5C12.6131 1.5 10.3239 2.44821 8.63604 4.13604C6.94821 5.82387 6 8.11305 6 10.5C6 21 1.5 24 1.5 24H28.5C28.5 24 24 21 24 10.5Z" stroke="white" stroke-width="3" stroke-linecap="round" stroke-linejoin="round"/>
</svg>
