<svg width="26" height="29" viewBox="0 0 26 29" fill="none" xmlns="http://www.w3.org/2000/svg">
<path d="M2.33788 17.0035C2.08557 17.0043 1.83819 16.9336 1.62448 16.7994C1.41078 16.6653 1.23953 16.4733 1.13061 16.2457C1.0217 16.0181 0.979604 15.7643 1.00921 15.5137C1.03882 15.2631 1.13892 15.0261 1.29788 14.8301L14.4979 1.23014C14.5969 1.11585 14.7318 1.03861 14.8805 1.01112C15.0292 0.983618 15.1828 1.00749 15.3162 1.07881C15.4495 1.15013 15.5547 1.26467 15.6143 1.40362C15.674 1.54256 15.6847 1.69767 15.6445 1.84347L13.0845 9.87014C13.0091 10.0722 12.9837 10.2895 13.0107 10.5035C13.0376 10.7175 13.1161 10.9217 13.2393 11.0987C13.3626 11.2757 13.5269 11.4202 13.7182 11.5197C13.9096 11.6192 14.1222 11.6708 14.3379 11.6701H23.6712C23.9235 11.6693 24.1709 11.74 24.3846 11.8742C24.5983 12.0083 24.7696 12.2003 24.8785 12.4279C24.9874 12.6555 25.0295 12.9094 24.9999 13.1599C24.9703 13.4105 24.8702 13.6475 24.7112 13.8435L11.5112 27.4435C11.4122 27.5578 11.2773 27.635 11.1286 27.6625C10.9799 27.69 10.8262 27.6661 10.6929 27.5948C10.5596 27.5235 10.4544 27.4089 10.3948 27.27C10.3351 27.131 10.3244 26.9759 10.3645 26.8301L12.9245 18.8035C13 18.6014 13.0254 18.3841 12.9984 18.1701C12.9715 17.9561 12.893 17.7519 12.7698 17.5749C12.6465 17.3979 12.4822 17.2535 12.2908 17.1539C12.0995 17.0544 11.8869 17.0028 11.6712 17.0035H2.33788Z" stroke="#FACC14" stroke-width="2" stroke-linecap="round" stroke-linejoin="round"/>
</svg>
