<svg width="32" height="29" viewBox="0 0 32 29" fill="none" xmlns="http://www.w3.org/2000/svg">
<path d="M15.6667 7.16667C15.6667 5.66377 15.0696 4.22243 14.0069 3.15973C12.9442 2.09702 11.5029 1.5 10 1.5H1.5V22.75H11.4167C12.5438 22.75 13.6248 23.1978 14.4219 23.9948C15.2189 24.7918 15.6667 25.8728 15.6667 27M15.6667 7.16667V27M15.6667 7.16667C15.6667 5.66377 16.2637 4.22243 17.3264 3.15973C18.3891 2.09702 19.8304 1.5 21.3333 1.5H29.8333V22.75H19.9167C18.7895 22.75 17.7085 23.1978 16.9115 23.9948C16.1144 24.7918 15.6667 25.8728 15.6667 27" stroke="currentColor" stroke-width="3" stroke-linecap="round" stroke-linejoin="round"/>
</svg>
