<svg width="18" height="18" viewBox="0 0 18 18" fill="none" xmlns="http://www.w3.org/2000/svg">
<path d="M4.4 3.3V2.75C4.4 1.23063 7.35625 0 11 0C14.6438 0 17.6 1.23063 17.6 2.75V3.3C17.6 4.35188 16.1803 5.26625 14.0938 5.73031C14.0113 5.63406 13.9253 5.54125 13.8394 5.45531C13.3066 4.92938 12.6191 4.53062 11.9006 4.235C10.4603 3.63344 8.58344 3.30344 6.6 3.30344C5.84719 3.30344 5.11156 3.35156 4.40688 3.44438C4.4 3.39969 4.4 3.35156 4.4 3.30344V3.3ZM14.85 12.1344V10.5462C15.3691 10.4122 15.8572 10.2541 16.3006 10.0684C16.7544 9.87938 17.1978 9.64906 17.6 9.37063V9.9C17.6 10.8212 16.5172 11.6359 14.85 12.1344ZM14.85 8.83438V7.7C14.85 7.54531 14.8363 7.3975 14.8156 7.25313C15.3484 7.11906 15.8469 6.9575 16.3006 6.765C16.7544 6.5725 17.1978 6.34562 17.6 6.06719V6.59656C17.6 7.51781 16.5172 8.3325 14.85 8.83094V8.83438ZM0 8.25V7.7C0 6.18062 2.95625 4.95 6.6 4.95C10.2438 4.95 13.2 6.18062 13.2 7.7V8.25C13.2 9.76937 10.2438 11 6.6 11C2.95625 11 0 9.76937 0 8.25ZM13.2 11.55C13.2 13.0694 10.2438 14.3 6.6 14.3C2.95625 14.3 0 13.0694 0 11.55V11.0206C0.39875 11.2991 0.842188 11.5259 1.29938 11.7184C2.73969 12.32 4.61656 12.65 6.6 12.65C8.58344 12.65 10.4603 12.3166 11.9006 11.7184C12.3544 11.5294 12.7978 11.2991 13.2 11.0206V11.55ZM13.2 14.3206V14.85C13.2 16.3694 10.2438 17.6 6.6 17.6C2.95625 17.6 0 16.3694 0 14.85V14.3206C0.39875 14.5991 0.842188 14.8259 1.29938 15.0184C2.73969 15.62 4.61656 15.95 6.6 15.95C8.58344 15.95 10.4603 15.6166 11.9006 15.0184C12.3544 14.8294 12.7978 14.5991 13.2 14.3206Z" fill="currentColor"/>
</svg>
