<svg width="10" height="10" viewBox="0 0 10 10" fill="none" xmlns="http://www.w3.org/2000/svg">
<path d="M1.75 5.91667H1.33333C1.11232 5.91667 0.900358 5.82887 0.744078 5.67259C0.587797 5.51631 0.5 5.30435 0.5 5.08333V1.33333C0.5 1.11232 0.587797 0.900358 0.744078 0.744078C0.900358 0.587797 1.11232 0.5 1.33333 0.5H5.08333C5.30435 0.5 5.51631 0.587797 5.67259 0.744078C5.82887 0.900358 5.91667 1.11232 5.91667 1.33333V1.75M4.25 3.41667H8C8.46024 3.41667 8.83333 3.78976 8.83333 4.25V8C8.83333 8.46024 8.46024 8.83333 8 8.83333H4.25C3.78976 8.83333 3.41667 8.46024 3.41667 8V4.25C3.41667 3.78976 3.78976 3.41667 4.25 3.41667Z" stroke="black" stroke-linecap="round" stroke-linejoin="round"/>
</svg>
