<svg width="295" height="267" viewBox="0 0 295 267" fill="none" xmlns="http://www.w3.org/2000/svg">
<path d="M286.5 0.25C291.056 0.25 294.75 3.94365 294.75 8.5V202.324C294.75 205.835 292.507 208.695 289.455 210.53C286.403 212.366 282.5 213.205 279.087 212.655C277.431 212.389 275.732 212.25 274 212.25C256.465 212.25 242.25 226.465 242.25 244C242.25 245.952 242.426 247.863 242.764 249.718C243.411 253.278 242.564 257.521 240.66 260.876C238.757 264.228 235.763 266.75 232.085 266.75H8.5C3.94365 266.75 0.25 263.056 0.25 258.5V8.5C0.250001 3.94365 3.94365 0.25 8.5 0.25H286.5Z" fill="white" stroke="black" stroke-width="0.5"/>
</svg>
