<svg width="13" height="13" viewBox="0 0 13 13" fill="none" xmlns="http://www.w3.org/2000/svg">
<path d="M5.75 1.73744H1.66667C1.35725 1.73744 1.0605 1.86035 0.841709 2.07915C0.622916 2.29794 0.5 2.59468 0.5 2.9041V11.0708C0.5 11.3802 0.622916 11.6769 0.841709 11.8957C1.0605 12.1145 1.35725 12.2374 1.66667 12.2374H9.83333C10.1428 12.2374 10.4395 12.1145 10.6583 11.8957C10.8771 11.6769 11 11.3802 11 11.0708V6.98744M10.125 0.862437C10.3571 0.630372 10.6718 0.5 11 0.5C11.3282 0.5 11.6429 0.630372 11.875 0.862437C12.1071 1.0945 12.2374 1.40925 12.2374 1.73744C12.2374 2.06563 12.1071 2.38037 11.875 2.61244L6.33333 8.1541L4 8.73744L4.58333 6.4041L10.125 0.862437Z" stroke="currentColor" stroke-linecap="round" stroke-linejoin="round"/>
</svg>
