<svg width="34" height="34" viewBox="0 0 34 34" fill="none" xmlns="http://www.w3.org/2000/svg">
<path d="M16.8333 21.0833C19.1805 21.0833 21.0833 19.1805 21.0833 16.8333C21.0833 14.4861 19.1805 12.5833 16.8333 12.5833C14.4861 12.5833 12.5833 14.4861 12.5833 16.8333C12.5833 19.1805 14.4861 21.0833 16.8333 21.0833Z" stroke="currentColor" stroke-width="2.5" stroke-linecap="round" stroke-linejoin="round"/>
<path d="M27.3167 21.0833C27.1281 21.5106 27.0718 21.9846 27.1552 22.4442C27.2385 22.9037 27.4576 23.3278 27.7842 23.6617L27.8692 23.7467C28.1326 24.0098 28.3416 24.3223 28.4842 24.6663C28.6268 25.0102 28.7001 25.3789 28.7001 25.7512C28.7001 26.1236 28.6268 26.4923 28.4842 26.8362C28.3416 27.1802 28.1326 27.4927 27.8692 27.7558C27.606 28.0193 27.2935 28.2282 26.9496 28.3708C26.6056 28.5134 26.2369 28.5868 25.8646 28.5868C25.4922 28.5868 25.1235 28.5134 24.7796 28.3708C24.4356 28.2282 24.1231 28.0193 23.86 27.7558L23.775 27.6708C23.4411 27.3442 23.0171 27.1252 22.5575 27.0418C22.0979 26.9585 21.624 27.0148 21.1967 27.2033C20.7777 27.3829 20.4203 27.6811 20.1686 28.0612C19.9169 28.4413 19.7818 28.8866 19.78 29.3425V29.5833C19.78 30.3348 19.4815 31.0554 18.9501 31.5868C18.4188 32.1182 17.6981 32.4167 16.9467 32.4167C16.1952 32.4167 15.4746 32.1182 14.9432 31.5868C14.4118 31.0554 14.1133 30.3348 14.1133 29.5833V29.4558C14.1024 28.9869 13.9506 28.5322 13.6777 28.1507C13.4049 27.7692 13.0235 27.4786 12.5833 27.3167C12.156 27.1281 11.6821 27.0718 11.2225 27.1552C10.7629 27.2385 10.3389 27.4576 10.005 27.7842L9.92 27.8692C9.65686 28.1326 9.34438 28.3416 9.00041 28.4842C8.65645 28.6268 8.28776 28.7001 7.91542 28.7001C7.54307 28.7001 7.17438 28.6268 6.83042 28.4842C6.48646 28.3416 6.17397 28.1326 5.91083 27.8692C5.6474 27.606 5.43842 27.2935 5.29583 26.9496C5.15325 26.6056 5.07985 26.2369 5.07985 25.8646C5.07985 25.4922 5.15325 25.1235 5.29583 24.7796C5.43842 24.4356 5.6474 24.1231 5.91083 23.86L5.99583 23.775C6.32243 23.4411 6.54151 23.0171 6.62484 22.5575C6.70817 22.0979 6.65191 21.624 6.46333 21.1967C6.28375 20.7777 5.98557 20.4203 5.60549 20.1686C5.22541 19.9169 4.78003 19.7818 4.32417 19.78H4.08333C3.33189 19.78 2.61122 19.4815 2.07986 18.9501C1.54851 18.4188 1.25 17.6981 1.25 16.9467C1.25 16.1952 1.54851 15.4746 2.07986 14.9432C2.61122 14.4118 3.33189 14.1133 4.08333 14.1133H4.21083C4.67974 14.1024 5.13451 13.9506 5.51601 13.6777C5.89751 13.4049 6.1881 13.0235 6.35 12.5833C6.53858 12.156 6.59483 11.6821 6.51151 11.2225C6.42818 10.7629 6.20909 10.3389 5.8825 10.005L5.7975 9.92C5.53407 9.65686 5.32508 9.34438 5.1825 9.00041C5.03991 8.65645 4.96652 8.28776 4.96652 7.91542C4.96652 7.54307 5.03991 7.17438 5.1825 6.83042C5.32508 6.48646 5.53407 6.17397 5.7975 5.91083C6.06064 5.6474 6.37312 5.43842 6.71709 5.29583C7.06105 5.15325 7.42974 5.07985 7.80208 5.07985C8.17443 5.07985 8.54312 5.15325 8.88708 5.29583C9.23104 5.43842 9.54353 5.6474 9.80667 5.91083L9.89167 5.99583C10.2255 6.32243 10.6496 6.54151 11.1092 6.62484C11.5687 6.70817 12.0427 6.65191 12.47 6.46333H12.5833C13.0023 6.28375 13.3597 5.98557 13.6114 5.60549C13.8631 5.22541 13.9982 4.78003 14 4.32417V4.08333C14 3.33189 14.2985 2.61122 14.8299 2.07986C15.3612 1.54851 16.0819 1.25 16.8333 1.25C17.5848 1.25 18.3054 1.54851 18.8368 2.07986C19.3682 2.61122 19.6667 3.33189 19.6667 4.08333V4.21083C19.6685 4.6667 19.8036 5.11208 20.0553 5.49216C20.307 5.87224 20.6643 6.17042 21.0833 6.35C21.5106 6.53858 21.9846 6.59483 22.4442 6.51151C22.9037 6.42818 23.3278 6.20909 23.6617 5.8825L23.7467 5.7975C24.0098 5.53407 24.3223 5.32508 24.6663 5.1825C25.0102 5.03991 25.3789 4.96652 25.7512 4.96652C26.1236 4.96652 26.4923 5.03991 26.8362 5.1825C27.1802 5.32508 27.4927 5.53407 27.7558 5.7975C28.0193 6.06064 28.2282 6.37312 28.3708 6.71709C28.5134 7.06105 28.5868 7.42974 28.5868 7.80208C28.5868 8.17443 28.5134 8.54312 28.3708 8.88708C28.2282 9.23104 28.0193 9.54353 27.7558 9.80667L27.6708 9.89167C27.3442 10.2255 27.1252 10.6496 27.0418 11.1092C26.9585 11.5687 27.0148 12.0427 27.2033 12.47V12.5833C27.3829 13.0023 27.6811 13.3597 28.0612 13.6114C28.4413 13.8631 28.8866 13.9982 29.3425 14H29.5833C30.3348 14 31.0554 14.2985 31.5868 14.8299C32.1182 15.3612 32.4167 16.0819 32.4167 16.8333C32.4167 17.5848 32.1182 18.3054 31.5868 18.8368C31.0554 19.3682 30.3348 19.6667 29.5833 19.6667H29.4558C29 19.6685 28.5546 19.8036 28.1745 20.0553C27.7944 20.307 27.4962 20.6643 27.3167 21.0833Z" stroke="currentColor" stroke-width="2.5" stroke-linecap="round" stroke-linejoin="round"/>
</svg>
