<svg width="49" height="49" viewBox="0 0 49 49" fill="none" xmlns="http://www.w3.org/2000/svg">
<path d="M47 24.5C47 36.9264 36.9264 47 24.5 47M47 24.5C47 12.0736 36.9264 2 24.5 2M47 24.5H2M24.5 47C12.0736 47 2 36.9264 2 24.5M24.5 47C30.1279 40.8387 33.3262 32.8429 33.5 24.5C33.3262 16.1571 30.1279 8.16129 24.5 2M24.5 47C18.8721 40.8387 15.6738 32.8429 15.5 24.5C15.6738 16.1571 18.8721 8.16129 24.5 2M2 24.5C2 12.0736 12.0736 2 24.5 2" stroke="currentColor" stroke-width="4" stroke-linecap="round" stroke-linejoin="round"/>
</svg>
