<svg width="15" height="20" viewBox="0 0 15 20" fill="none" xmlns="http://www.w3.org/2000/svg">
<path d="M0 2.4C0 1.07625 1.07625 0 2.4 0H8.00625C8.64375 0 9.255 0.25125 9.705 0.70125L13.6988 4.69875C14.1488 5.14875 14.4 5.76 14.4 6.3975V16.8C14.4 18.1237 13.3238 19.2 12 19.2H2.4C1.07625 19.2 0 18.1237 0 16.8V13.2H2.26125L4.09125 15.5512C4.2825 15.7987 4.59 15.9262 4.90125 15.8925C5.2125 15.8587 5.4825 15.6637 5.6175 15.3825L7.22625 11.9625L7.5975 12.705C7.75125 13.0087 8.0625 13.2037 8.40375 13.2037H11.1038C11.6025 13.2037 12.0038 12.8025 12.0038 12.3037C12.0038 11.805 11.6025 11.4037 11.1038 11.4037H8.95875L8.00625 9.5025C7.8525 9.195 7.53375 9 7.18875 9.00375C6.84375 9.0075 6.5325 9.21 6.38625 9.52125L4.6125 13.2937L3.4125 11.7525C3.24 11.5275 2.9775 11.4 2.7 11.4H0V2.4ZM7.8 2.19375V5.7C7.8 6.19875 8.20125 6.6 8.7 6.6H12.2063L7.8 2.19375Z" fill="currentColor"/>
</svg>
