<svg width="18" height="22" viewBox="0 0 18 22" fill="none" xmlns="http://www.w3.org/2000/svg">
<path d="M8.66667 10.8333C9.2625 10.8333 9.77257 10.6212 10.1969 10.1969C10.6212 9.77257 10.8333 9.2625 10.8333 8.66667C10.8333 8.07083 10.6212 7.56076 10.1969 7.13646C9.77257 6.71215 9.2625 6.5 8.66667 6.5C8.07083 6.5 7.56076 6.71215 7.13646 7.13646C6.71215 7.56076 6.5 8.07083 6.5 8.66667C6.5 9.2625 6.71215 9.77257 7.13646 10.1969C7.56076 10.6212 8.07083 10.8333 8.66667 10.8333ZM8.66667 18.7958C10.8694 16.7736 12.5035 14.9365 13.5688 13.2844C14.634 11.6323 15.1667 10.1653 15.1667 8.88333C15.1667 6.91528 14.5392 5.30382 13.2844 4.04896C12.0295 2.7941 10.4903 2.16667 8.66667 2.16667C6.84306 2.16667 5.30382 2.7941 4.04896 4.04896C2.7941 5.30382 2.16667 6.91528 2.16667 8.88333C2.16667 10.1653 2.69931 11.6323 3.76458 13.2844C4.82986 14.9365 6.46389 16.7736 8.66667 18.7958ZM8.66667 21.6667C5.75972 19.1931 3.58854 16.8955 2.15313 14.774C0.717708 12.6524 0 10.6889 0 8.88333C0 6.175 0.871181 4.01736 2.61354 2.41042C4.3559 0.803472 6.37361 0 8.66667 0C10.9597 0 12.9774 0.803472 14.7198 2.41042C16.4622 4.01736 17.3333 6.175 17.3333 8.88333C17.3333 10.6889 16.6156 12.6524 15.1802 14.774C13.7448 16.8955 11.5736 19.1931 8.66667 21.6667Z" fill="currentColor"/>
</svg>
