<svg width="15" height="20" viewBox="0 0 15 20" fill="none" xmlns="http://www.w3.org/2000/svg">
<path d="M8.7 3.6H5.7C5.20125 3.6 4.8 3.19875 4.8 2.7C4.8 2.20125 5.20125 1.8 5.7 1.8H8.7C9.19875 1.8 9.6 2.20125 9.6 2.7C9.6 3.19875 9.19875 3.6 8.7 3.6ZM8.7 5.4C10.0912 5.4 11.235 4.35 11.385 3H12C12.33 3 12.6 3.27 12.6 3.6V16.8C12.6 17.13 12.33 17.4 12 17.4H2.4C2.07 17.4 1.8 17.13 1.8 16.8V3.6C1.8 3.27 2.07 3 2.4 3H3.015C3.165 4.35 4.30875 5.4 5.7 5.4H8.7ZM10.9462 1.2C10.4625 0.47625 9.6375 0 8.7 0H5.7C4.7625 0 3.9375 0.47625 3.45375 1.2H2.4C1.07625 1.2 0 2.27625 0 3.6V16.8C0 18.1238 1.07625 19.2 2.4 19.2H12C13.3237 19.2 14.4 18.1238 14.4 16.8V3.6C14.4 2.27625 13.3237 1.2 12 1.2H10.9462Z" fill="currentColor"/>
</svg>
