<svg width="22" height="21" viewBox="0 0 22 21" fill="none" xmlns="http://www.w3.org/2000/svg">
<path d="M9.6 0.9C9.6 0.40125 10.0013 0 10.5 0H14.7C15.1988 0 15.6 0.40125 15.6 0.9V2.7C15.6 3.19875 15.1988 3.6 14.7 3.6H12V4.32L16.8 7.2H19.2C20.5238 7.2 21.6 8.27625 21.6 9.6V18C21.6 19.3237 20.5238 20.4 19.2 20.4H2.4C1.07625 20.4 0 19.3237 0 18V9.6C0 8.27625 1.07625 7.2 2.4 7.2H4.8L9.6 4.32V0.9ZM9 15.6V18.6H12.6V15.6C12.6 14.6062 11.7938 13.8 10.8 13.8C9.80625 13.8 9 14.6062 9 15.6ZM4.2 16.8C4.53 16.8 4.8 16.53 4.8 16.2V15C4.8 14.67 4.53 14.4 4.2 14.4H3C2.67 14.4 2.4 14.67 2.4 15V16.2C2.4 16.53 2.67 16.8 3 16.8H4.2ZM4.8 11.4V10.2C4.8 9.87 4.53 9.6 4.2 9.6H3C2.67 9.6 2.4 9.87 2.4 10.2V11.4C2.4 11.73 2.67 12 3 12H4.2C4.53 12 4.8 11.73 4.8 11.4ZM18.6 16.8C18.93 16.8 19.2 16.53 19.2 16.2V15C19.2 14.67 18.93 14.4 18.6 14.4H17.4C17.07 14.4 16.8 14.67 16.8 15V16.2C16.8 16.53 17.07 16.8 17.4 16.8H18.6ZM19.2 11.4V10.2C19.2 9.87 18.93 9.6 18.6 9.6H17.4C17.07 9.6 16.8 9.87 16.8 10.2V11.4C16.8 11.73 17.07 12 17.4 12H18.6C18.93 12 19.2 11.73 19.2 11.4ZM10.8 11.4C11.7938 11.4 12.6 10.5937 12.6 9.6C12.6 8.60625 11.7938 7.8 10.8 7.8C9.80625 7.8 9 8.60625 9 9.6C9 10.5937 9.80625 11.4 10.8 11.4Z" fill="currentColor"/>
</svg>
