<svg width="24" height="29" viewBox="0 0 24 29" fill="none" xmlns="http://www.w3.org/2000/svg">
<path d="M22.3333 15.6673C22.3333 22.3339 17.6667 25.6673 12.12 27.6006C11.8296 27.699 11.5141 27.6943 11.2267 27.5873C5.66667 25.6673 1 22.3339 1 15.6673V6.33393C1 5.98031 1.14048 5.64117 1.39052 5.39112C1.64057 5.14108 1.97971 5.0006 2.33333 5.0006C5 5.0006 8.33333 3.4006 10.6533 1.37393C10.9358 1.1326 11.2951 1 11.6667 1C12.0382 1 12.3975 1.1326 12.68 1.37393C15.0133 3.41393 18.3333 5.0006 21 5.0006C21.3536 5.0006 21.6928 5.14108 21.9428 5.39112C22.1929 5.64117 22.3333 5.98031 22.3333 6.33393V15.6673Z" stroke="currentColor" stroke-width="2" stroke-linecap="round" stroke-linejoin="round"/>
</svg>
