<svg width="19" height="20" viewBox="0 0 19 20" fill="none" xmlns="http://www.w3.org/2000/svg">
<path d="M9.37111 0C9.5508 0 9.73049 0.0390626 9.89455 0.113281L17.2539 3.23438C18.1133 3.59766 18.7539 4.44531 18.75 5.46875C18.7305 9.34375 17.1367 16.4336 10.4063 19.6562C9.75392 19.9688 8.99611 19.9688 8.34377 19.6562C1.60939 16.4336 0.019549 9.34375 1.77675e-05 5.46875C-0.00388848 4.44531 0.636737 3.59766 1.49611 3.23438L8.85158 0.113281C9.01564 0.0390626 9.19142 0 9.37111 0ZM9.37111 2.60938V17.3789C14.7617 14.7695 16.211 8.98828 16.2461 5.52734L9.37111 2.61328V2.60938Z" fill="currentColor"/>
</svg>
