<svg width="12" height="13" viewBox="0 0 12 13" fill="none" xmlns="http://www.w3.org/2000/svg">
<path d="M0.5 2.83333H1.66667M1.66667 2.83333H11M1.66667 2.83333V11C1.66667 11.3094 1.78958 11.6062 2.00838 11.825C2.22717 12.0438 2.52391 12.1667 2.83333 12.1667H8.66667C8.97609 12.1667 9.27283 12.0438 9.49162 11.825C9.71042 11.6062 9.83333 11.3094 9.83333 11V2.83333M3.41667 2.83333V1.66667C3.41667 1.35725 3.53958 1.0605 3.75838 0.841709C3.97717 0.622916 4.27391 0.5 4.58333 0.5H6.91667C7.22609 0.5 7.52283 0.622916 7.74162 0.841709C7.96042 1.0605 8.08333 1.35725 8.08333 1.66667V2.83333" stroke="white" stroke-linecap="round" stroke-linejoin="round"/>
</svg>
