<svg width="63" height="44" viewBox="0 0 63 44" fill="none" xmlns="http://www.w3.org/2000/svg">
<path d="M14.0625 43.75C6.29883 43.75 0 37.4512 0 29.6875C0 23.5547 3.92578 18.3398 9.39453 16.416C9.38477 16.1523 9.375 15.8887 9.375 15.625C9.375 6.99219 16.3672 0 25 0C30.791 0 35.8398 3.14453 38.5449 7.83203C40.0842 6.79917 41.8963 6.2484 43.75 6.25C48.9258 6.25 53.125 10.4492 53.125 15.625C53.125 16.8164 52.9004 17.9492 52.5 19.0039C58.2031 20.1562 62.5 25.2051 62.5 31.25C62.5 38.1543 56.9043 43.75 50 43.75H14.0625ZM21.7773 22.5586C20.8594 23.4766 20.8594 24.9609 21.7773 25.8691C22.6953 26.7773 24.1797 26.7871 25.0879 25.8691L28.8965 22.0605V35.1562C28.8965 36.4551 29.9414 37.5 31.2402 37.5C32.5391 37.5 33.584 36.4551 33.584 35.1562V22.0605L37.3926 25.8691C38.3105 26.7871 39.7949 26.7871 40.7031 25.8691C41.6113 24.9512 41.6211 23.4668 40.7031 22.5586L32.8906 14.7461C31.9727 13.8281 30.4883 13.8281 29.5801 14.7461L21.7676 22.5586" fill="currentColor"/>
</svg>
