<svg width="38" height="38" viewBox="0 0 38 38" fill="none" xmlns="http://www.w3.org/2000/svg">
<path d="M21.3337 21.25V11.9167C21.3337 11.6072 21.2107 11.3105 20.992 11.0917C20.7732 10.8729 20.4764 10.75 20.167 10.75H17.8337C17.5242 10.75 17.2275 10.8729 17.0087 11.0917C16.7899 11.3105 16.667 11.6072 16.667 11.9167V21.25M14.3337 13.0833H23.667C24.3113 13.0833 24.8337 13.6057 24.8337 14.25V20.0833C24.8337 20.7277 24.3113 21.25 23.667 21.25H14.3337C13.6893 21.25 13.167 20.7277 13.167 20.0833V14.25C13.167 13.6057 13.6893 13.0833 14.3337 13.0833Z" stroke="white" stroke-linecap="round" stroke-linejoin="round"/>
<path d="M33.5 31.5L26.975 24.975M30.5 16.5C30.5 23.1274 25.1274 28.5 18.5 28.5C11.8726 28.5 6.5 23.1274 6.5 16.5C6.5 9.87258 11.8726 4.5 18.5 4.5C25.1274 4.5 30.5 9.87258 30.5 16.5Z" stroke="white" stroke-width="3" stroke-linecap="round" stroke-linejoin="round"/>
</svg>
